<?xml version="1.0" encoding="UTF-8" standalone="no"?>
<svg
   xmlns:dc="http://purl.org/dc/elements/1.1/"
   xmlns:cc="http://creativecommons.org/ns#"
   xmlns:rdf="http://www.w3.org/1999/02/22-rdf-syntax-ns#"
   xmlns:svg="http://www.w3.org/2000/svg"
   xmlns="http://www.w3.org/2000/svg"
   xmlns:sodipodi="http://sodipodi.sourceforge.net/DTD/sodipodi-0.dtd"
   xmlns:inkscape="http://www.inkscape.org/namespaces/inkscape"
   id="ART"
   viewBox="0 0 50 50"
   version="1.1"
   inkscape:version="0.91 r13725"
   sodipodi:docname="iconfinder_icon_fruit_abacaxi_3316495.svg"
   width="50"
   height="50">
  <metadata
     id="metadata40">
    <rdf:RDF>
      <cc:Work
         rdf:about="">
        <dc:format>image/svg+xml</dc:format>
        <dc:type
           rdf:resource="http://purl.org/dc/dcmitype/StillImage" />
        <dc:title></dc:title>
      </cc:Work>
    </rdf:RDF>
  </metadata>
  <sodipodi:namedview
     pagecolor="#ffffff"
     bordercolor="#666666"
     borderopacity="1"
     objecttolerance="10"
     gridtolerance="10"
     guidetolerance="10"
     inkscape:pageopacity="0"
     inkscape:pageshadow="2"
     inkscape:window-width="967"
     inkscape:window-height="666"
     id="namedview38"
     showgrid="false"
     inkscape:zoom="6.8511515"
     inkscape:cx="25.105932"
     inkscape:cy="26.059322"
     inkscape:window-x="207"
     inkscape:window-y="171"
     inkscape:window-maximized="0"
     inkscape:current-layer="ART" />
  <defs
     id="defs3">
    <style
       id="style5">.cls-1{fill:#fff800;}.cls-1,.cls-2,.cls-3,.cls-4,.cls-5{stroke:#000;}.cls-1,.cls-2,.cls-3,.cls-4{stroke-miterlimit:10;}.cls-1,.cls-4{stroke-width:4px;}.cls-2{fill:none;stroke-width:2px;}.cls-3,.cls-4,.cls-5{fill:#057a3a;}.cls-3,.cls-5{stroke-width:3px;}.cls-5{stroke-linecap:square;}</style>
  </defs>
  <g
     id="g3368"
     transform="matrix(0.32765822,0,0,0.32765822,0.42399521,0.42043457)">
    <path
       id="_Path_"
       data-name="&lt;Path&gt;"
       d="m 115.4,98.76 c 0,33.38 -21.88,46.43 -39.54,46.43 l -1.71,0 c -17.66,0 -39.54,-13.06 -39.54,-46.43 0,-21.46 11.25,-46.43 39.54,-46.43 l 1.71,0 c 28.28,0 39.54,24.97 39.54,46.43 z"
       class="cls-1"
       inkscape:connector-curvature="0"
       style="fill:#fff800;stroke:#000000;stroke-width:4px;stroke-miterlimit:10" />
    <polyline
       id="polyline10"
       points="83.27 144.45 75 136.18 61.86 123.04 48.72 109.9 35.59 96.77 34.67 95.85"
       class="cls-2"
       style="fill:none;stroke:#000000;stroke-width:2px;stroke-miterlimit:10" />
    <polyline
       id="polyline12"
       points="111.63 120.26 101.28 109.9 88.14 96.76 75 83.63 61.86 70.49 51.13 59.75"
       class="cls-2"
       style="fill:none;stroke:#000000;stroke-width:2px;stroke-miterlimit:10" />
    <polyline
       id="polyline14"
       points="115.33 95.85 114.42 96.77 101.28 109.9 88.14 123.04 75 136.18 66.73 144.45"
       class="cls-2"
       style="fill:none;stroke:#000000;stroke-width:2px;stroke-miterlimit:10" />
    <polyline
       id="polyline16"
       points="98.87 59.75 88.14 70.49 75 83.63 61.86 96.76 48.72 109.9 38.37 120.26"
       class="cls-2"
       style="fill:none;stroke:#000000;stroke-width:2px;stroke-miterlimit:10" />
    <polyline
       id="polyline18"
       points="70.15 52.5 75 57.35 88.14 70.49 101.28 83.63 114.42 96.77 115.39 97.74 115.39 97.75"
       class="cls-2"
       style="fill:none;stroke:#000000;stroke-width:2px;stroke-miterlimit:10" />
    <polyline
       id="polyline20"
       points="100.87 135.77 88.14 123.04 75 109.9 61.86 96.76 48.73 83.63 39.69 74.59"
       class="cls-2"
       style="fill:none;stroke:#000000;stroke-width:2px;stroke-miterlimit:10" />
    <polyline
       id="polyline22"
       points="34.61 97.75 34.61 97.74 35.59 96.77 48.73 83.63 61.86 70.49 75 57.35 79.85 52.5"
       class="cls-2"
       style="fill:none;stroke:#000000;stroke-width:2px;stroke-miterlimit:10" />
    <polyline
       id="polyline24"
       points="110.32 74.58 101.28 83.63 88.14 96.76 75 109.9 61.86 123.04 49.13 135.77"
       class="cls-2"
       style="fill:none;stroke:#000000;stroke-width:2px;stroke-miterlimit:10" />
    <path
       id="path26"
       d="m 82.93,54.24 c 0,-7 2.5,-36.66 9.95,-49 -12.72,3.32 -29,24.11 -29,49 -0.02,3.37 19.05,3.76 19.05,0 z"
       class="cls-3"
       inkscape:connector-curvature="0"
       style="fill:#057a3a;stroke:#000000;stroke-width:3px;stroke-miterlimit:10" />
    <path
       id="path28"
       d="m 66.79,54.24 c 0,-7 -2.43,-36.66 -9.67,-49 12.36,3.32 28.51,24.11 28.51,49 0,3.37 -18.84,3.76 -18.84,0 z"
       class="cls-3"
       inkscape:connector-curvature="0"
       style="fill:#057a3a;stroke:#000000;stroke-width:3px;stroke-miterlimit:10" />
    <path
       id="path30"
       d="m 86.34,55 c 0,-5 3.57,-26 14.23,-34.77 C 82.38,22.6 63.69,37.35 63.69,55 c 0,2.41 22.65,2.7 22.65,0 z"
       class="cls-3"
       inkscape:connector-curvature="0"
       style="fill:#057a3a;stroke:#000000;stroke-width:3px;stroke-miterlimit:10" />
    <path
       id="path32"
       d="m 63.26,55 c 0,-5 -3.47,-26 -13.83,-34.77 17.68,2.37 36.15,17.12 36.15,34.77 0,2.41 -22.32,2.7 -22.32,0 z"
       class="cls-3"
       inkscape:connector-curvature="0"
       style="fill:#057a3a;stroke:#000000;stroke-width:3px;stroke-miterlimit:10" />
    <path
       id="path34"
       d="m 74.95,55 a 0.66,0.66 0 0 1 0,0.25"
       class="cls-4"
       inkscape:connector-curvature="0"
       style="fill:#057a3a;stroke:#000000;stroke-width:4px;stroke-miterlimit:10" />
    <path
       id="path36"
       d="m 75.32,40 c 10.48,-6.5 25.44,-8.41 34.16,-5 -15.5,2.33 -22.74,15 -22.74,20 0,2.58 -5.87,4.86 -11.83,4.86 C 68.95,59.86 63.13,57.6 63.13,55 63.13,50 55.92,37.36 40.52,35 53.69,29.83 80,38.91 83.89,55.64"
       class="cls-5"
       inkscape:connector-curvature="0"
       style="fill:#057a3a;stroke:#000000;stroke-width:3px;stroke-linecap:square" />
  </g>
</svg>
