<?xml version="1.0" encoding="UTF-8" standalone="no"?>
<svg
   xmlns:dc="http://purl.org/dc/elements/1.1/"
   xmlns:cc="http://creativecommons.org/ns#"
   xmlns:rdf="http://www.w3.org/1999/02/22-rdf-syntax-ns#"
   xmlns:svg="http://www.w3.org/2000/svg"
   xmlns="http://www.w3.org/2000/svg"
   xmlns:sodipodi="http://sodipodi.sourceforge.net/DTD/sodipodi-0.dtd"
   xmlns:inkscape="http://www.inkscape.org/namespaces/inkscape"
   height="50"
   id="Layer_1"
   version="1.1"
   viewBox="0 0 50 50"
   width="50"
   xml:space="preserve"
   inkscape:version="0.91 r13725"
   sodipodi:docname="iconfinder_view_126581.svg"><metadata
     id="metadata9"><rdf:RDF><cc:Work
         rdf:about=""><dc:format>image/svg+xml</dc:format><dc:type
           rdf:resource="http://purl.org/dc/dcmitype/StillImage" /><dc:title></dc:title></cc:Work></rdf:RDF></metadata><defs
     id="defs7" /><sodipodi:namedview
     pagecolor="#ffffff"
     bordercolor="#666666"
     borderopacity="1"
     objecttolerance="10"
     gridtolerance="10"
     guidetolerance="10"
     inkscape:pageopacity="0"
     inkscape:pageshadow="2"
     inkscape:window-width="997"
     inkscape:window-height="705"
     id="namedview5"
     showgrid="false"
     inkscape:zoom="8.7443859"
     inkscape:cx="25.062234"
     inkscape:cy="24.258098"
     inkscape:window-x="96"
     inkscape:window-y="68"
     inkscape:window-maximized="0"
     inkscape:current-layer="Layer_1" /><path
     d="M 25,19.955189 C 25,22.739925 22.739924,25 19.955189,25 c 0,2.784735 2.260075,5.04481 5.044811,5.04481 2.784736,0 5.04481,-2.260075 5.04481,-5.04481 0,-2.784735 -2.260074,-5.044811 -5.04481,-5.044811 z M 25,9.8655679 C 14.653094,9.8655679 4.8207571,21.589708 4.8207571,25 4.8207571,28.410291 14.653094,40.134432 25,40.134432 35.346906,40.134432 45.179243,28.410291 45.179243,25 45.179243,21.589708 35.346906,9.8655679 25,9.8655679 Z m 0,25.2240541 c -5.571994,0 -10.089621,-4.517629 -10.089621,-10.089622 0,-5.571994 4.517627,-10.089621 10.089621,-10.089621 5.571993,0 10.089622,4.517627 10.089622,10.089621 0,5.571993 -4.517629,10.089622 -10.089622,10.089622 z"
     id="path3"
     inkscape:connector-curvature="0" /></svg>