<?xml version="1.0" encoding="UTF-8" standalone="no"?>
<!-- Created with Inkscape (http://www.inkscape.org/) -->

<svg
   xmlns:dc="http://purl.org/dc/elements/1.1/"
   xmlns:cc="http://creativecommons.org/ns#"
   xmlns:rdf="http://www.w3.org/1999/02/22-rdf-syntax-ns#"
   xmlns:svg="http://www.w3.org/2000/svg"
   xmlns="http://www.w3.org/2000/svg"
   xmlns:sodipodi="http://sodipodi.sourceforge.net/DTD/sodipodi-0.dtd"
   xmlns:inkscape="http://www.inkscape.org/namespaces/inkscape"
   width="90"
   height="120"
   viewBox="0 0 90.000001 120"
   id="svg2"
   version="1.1"
   inkscape:version="0.91 r13725"
   sodipodi:docname="jack.svg">
  <defs
     id="defs4" />
  <sodipodi:namedview
     id="base"
     pagecolor="#ffffff"
     bordercolor="#666666"
     borderopacity="1.0"
     inkscape:pageopacity="0.0"
     inkscape:pageshadow="2"
     inkscape:zoom="5.2522648"
     inkscape:cx="91.19535"
     inkscape:cy="59.848097"
     inkscape:document-units="px"
     inkscape:current-layer="layer1"
     showgrid="false"
     units="px"
     inkscape:window-width="1280"
     inkscape:window-height="1000"
     inkscape:window-x="0"
     inkscape:window-y="24"
     inkscape:window-maximized="1" />
  <metadata
     id="metadata7">
    <rdf:RDF>
      <cc:Work
         rdf:about="">
        <dc:format>image/svg+xml</dc:format>
        <dc:type
           rdf:resource="http://purl.org/dc/dcmitype/StillImage" />
        <dc:title></dc:title>
      </cc:Work>
    </rdf:RDF>
  </metadata>
  <g
     inkscape:label="Camada 1"
     inkscape:groupmode="layer"
     id="layer1"
     transform="translate(0,-932.36216)">
    <path
       inkscape:connector-curvature="0"
       id="path3351"
       d="m 158.97531,1020.4008 0.0606,-11.9434 0.3916,-0.816 c 0.45958,-0.9577 1.34847,-2.3172 1.99098,-3.045 l 0.45484,-0.5152 0,-1.0321 0,-1.0323 -0.38762,0.3685 c -0.21319,0.2026 -0.84664,0.8052 -1.40767,1.3391 -1.23632,1.1764 -2.41881,2.1308 -3.67416,2.9654 -1.17257,0.7795 -2.60961,1.5306 -2.79341,1.4602 -0.0742,-0.028 -0.21486,-0.2085 -0.31249,-0.3998 -0.60301,-1.182 -2.01109,-2.3283 -3.33324,-2.7134 -0.85032,-0.2478 -2.98496,-0.1394 -3.97683,0.2019 l -0.46278,0.1592 -0.45552,-0.3937 c -0.25053,-0.2166 -2.78735,-2.3384 -5.63737,-4.7153 -5.14447,-4.29042 -7.32164,-6.05265 -7.75414,-6.2763 -0.20272,-0.10484 -0.2293,-0.10245 -0.26512,0.0238 -0.21318,0.75138 -1.59237,6.0592 -2.1762,8.3752 -0.40633,1.6118 -0.75505,2.9468 -0.77492,2.9667 -0.0199,0.02 -2.01339,-1.9301 -4.43006,-4.3333 l -4.39394,-4.36949 -0.24168,0.3827 c -0.2433,0.3852 -1.25369,1.7407 -1.60801,2.1573 l -0.19066,0.2241 -0.46638,-0.4713 c -0.25651,-0.2592 -0.46639,-0.5285 -0.46639,-0.5985 0,-0.07 0.23868,-0.43 0.53039,-0.8003 0.59251,-0.752 1.07497,-1.56587 1.14965,-1.93927 0.0421,-0.2107 0.0212,-0.25465 -0.14208,-0.29837 -0.10532,-0.0282 -0.34178,-0.0518 -0.52547,-0.0524 -0.49621,-0.002 -1.00656,-0.30485 -1.23259,-0.73228 -0.2348,-0.44402 -0.23663,-0.77888 -0.008,-1.48843 0.17195,-0.53391 0.17371,-0.56861 0.0402,-0.79469 -0.27401,-0.46386 -0.26146,-1.12337 0.0354,-1.86124 0.094,-0.23361 0.088,-0.29628 -0.0511,-0.53043 -0.21927,-0.36919 -0.22024,-1.30265 -0.002,-1.67053 0.15462,-0.26034 0.15441,-0.26691 -0.0241,-0.77524 -0.21194,-0.60344 -0.22482,-0.93728 -0.0521,-1.35063 0.29468,-0.70526 0.67845,-0.91653 1.66493,-0.91653 l 0.73849,0 0.002,-3.89659 0.002,-3.89658 0.89627,-0.80157 c 1.03205,-0.92299 1.17348,-1.13815 1.11924,-1.70267 -0.0209,-0.21796 -0.0607,-0.4189 -0.0883,-0.44651 -0.0276,-0.0276 -0.46441,0.3467 -0.97065,0.83184 l -0.92043,0.88206 -0.0218,-2.15583 -0.0218,-2.15582 0.9911,-0.93874 c 0.97493,-0.92342 0.9917,-0.94538 1.02821,-1.34674 0.0204,-0.22442 0.006,-0.49136 -0.0332,-0.59319 -0.0663,-0.17443 -0.12471,-0.1351 -1.00642,0.67711 l -0.93607,0.86229 -0.0525,-4.5533 c -0.0317,-2.75207 -0.0852,-4.63401 -0.13504,-4.75732 -0.0821,-0.20304 -0.0832,-0.20246 -0.22263,0.12241 -0.4222,0.98378 -0.52404,3.36697 -0.53007,12.40379 l -0.005,6.69153 -0.36692,-0.40802 c -0.89104,-0.99085 -1.92989,-2.76838 -2.20558,-3.77388 -0.36157,-1.3187 -0.35607,-12.46524 0.007,-14.91342 0.58797,-3.9608 3.44369,-7.36189 7.36759,-8.77461 0.28159,-0.10137 0.53812,-0.15818 0.57007,-0.12623 0.0319,0.0319 0.0715,4.52642 0.0879,9.98773 0.0311,10.35859 -0.0233,13.11853 -0.27564,13.96903 -0.27205,0.91706 -1.32131,2.70475 -2.07212,3.5304 -0.21375,0.23507 -0.43096,0.5076 -0.48267,0.60564 -0.0561,0.10626 -0.094,0.5795 -0.094,1.17181 l 0,0.99356 1.31597,-1.27769 c 2.16303,-2.10011 3.9947,-3.49114 5.83089,-4.42818 1.19316,-0.60888 1.10021,-0.61145 1.48787,0.0411 0.63487,1.06863 1.31453,1.68617 2.54765,2.31477 l 0.691,0.35225 1.34646,0.027 c 1.33188,0.0267 1.79586,-0.0263 2.81861,-0.32213 l 0.32969,-0.0953 4.56655,3.82044 c 6.66572,5.57666 9.20046,7.62868 9.42326,7.62868 0.0378,0 0.1243,-0.19279 0.19221,-0.42842 0.1774,-0.61555 2.10703,-8.10164 2.48649,-9.64642 0.17595,-0.71634 0.35367,-1.31368 0.39493,-1.32743 0.0413,-0.0138 2.04165,1.91986 4.44533,4.2969 l 4.37032,4.32191 0.53744,-0.79117 c 0.5741,-0.84515 1.41576,-1.89284 1.52062,-1.89284 0.11901,0 0.9033,0.88729 0.9033,1.02192 0,0.0737 -0.27801,0.48606 -0.61781,0.9163 -0.67399,0.85339 -1.1197,1.64752 -1.08022,1.92465 0.022,0.15412 0.0937,0.18331 0.56492,0.22992 0.85478,0.0845 1.27022,0.38424 1.4736,1.06305 0.0782,0.26089 0.0705,0.42639 -0.0419,0.907 -0.16727,0.71519 -0.1676,0.81566 -0.004,1.28153 0.1452,0.41424 0.11304,0.85187 -0.10843,1.47544 -0.13632,0.38382 -0.13576,0.40771 0.0156,0.66396 0.21522,0.36434 0.22083,1.21153 0.0111,1.67682 -0.15336,0.3402 -0.15319,0.3467 0.0204,0.8004 0.22957,0.5999 0.22087,0.9716 -0.0347,1.4845 -0.3076,0.6173 -0.61735,0.7802 -1.56209,0.8215 l -0.75786,0.033 0,3.84049 0,3.8404 -1.02187,0.9848 c -1.02119,0.9842 -1.02186,0.9851 -1.01192,1.3521 0.0222,0.8191 0.0214,0.8192 1.02679,-0.1245 0.50088,-0.4701 0.93236,-0.8547 0.95884,-0.8547 0.0265,0 0.0473,0.9639 0.0463,2.1421 l -0.002,2.1421 -0.85968,0.7731 c -1.15546,1.0392 -1.27956,1.2629 -1.12625,2.0294 l 0.0505,0.2524 0.89382,-0.8339 c 0.4916,-0.4586 0.92247,-0.8443 0.95749,-0.8569 0.035,-0.013 0.084,2.0068 0.10873,4.4881 0.027,2.7073 0.0777,4.593 0.12671,4.7154 0.0812,0.2029 0.0825,0.2022 0.22175,-0.1224 0.42529,-0.9909 0.52514,-3.3233 0.52694,-12.3086 7.3e-4,-3.8325 0.0321,-6.6663 0.0735,-6.6506 0.26198,0.099 1.5078,1.8455 1.96483,2.7549 0.55239,1.0991 0.6603,1.5816 0.74038,3.3109 0.1658,3.5806 0.0434,11.2887 -0.20588,12.96 -0.41379,2.7746 -1.97569,5.3608 -4.25717,7.0491 -0.83683,0.6192 -2.70911,1.5842 -3.60856,1.8598 l -0.19403,0.059 0.0606,-11.9434 z m 5.57515,-21.99279 c 0.49726,-0.089 0.64694,-0.6374 0.23466,-0.859 -0.36429,-0.1958 -5.84337,-0.2939 -6.27228,-0.1123 -0.37174,0.1574 -0.28743,0.9649 0.11001,1.0536 0.24729,0.055 5.57456,-0.019 5.92761,-0.082 z m -17.63033,-0.5179 c 0.31433,-0.1916 0.59036,-0.6118 0.59004,-0.8981 -4.9e-4,-0.4176 -0.64093,-1.06111 -1.05547,-1.0605 -0.49797,7.4e-4 -1.0645,0.6031 -1.06509,1.1325 -2.4e-4,0.2172 0.0756,0.3518 0.35618,0.6324 0.41126,0.4113 0.73102,0.464 1.17434,0.1937 z m 17.74315,-1.85983 c 0.51072,-0.21238 0.4645,-0.77649 -0.0729,-0.89032 -0.17034,-0.036 -1.5434,-0.0656 -3.05126,-0.0656 -3.09389,0 -3.03729,-0.0107 -2.99516,0.56417 0.0385,0.52597 0.1412,0.5421 3.24779,0.51021 1.70852,-0.0176 2.73021,-0.0597 2.87158,-0.11846 z m -41.50024,-1.91088 c 0.17498,-0.17512 0.1797,-0.60318 0.009,-0.77433 -0.19488,-0.19489 -2.85217,-0.32205 -4.43562,-0.21227 -1.08674,0.0754 -1.21726,0.10078 -1.34852,0.26288 -0.10305,0.12726 -0.13094,0.25511 -0.0959,0.43945 0.0272,0.143 0.0632,0.27597 0.08,0.29551 0.0963,0.11174 0.99077,0.15104 3.18692,0.14004 2.20302,-0.011 2.48052,-0.0272 2.60453,-0.15128 z m 40.95021,-0.30505 c 0.52558,-0.0551 0.67692,-0.10284 0.79753,-0.25179 0.0819,-0.1011 0.13306,-0.24297 0.11375,-0.31526 -0.0193,-0.0723 -0.0576,-0.23241 -0.085,-0.35584 l -0.0499,-0.22441 -2.83418,8.6e-4 c -3.16621,0.002 -3.22558,0.0103 -3.26624,0.49029 -0.0424,0.50075 0.11063,0.60377 0.97604,0.65704 1.20182,0.074 3.63673,0.0733 4.34809,-8.6e-4 z m -22.64899,-0.53111 c 0.33509,-0.17328 0.74249,-0.67188 0.74249,-0.9087 0,-0.48259 -0.60454,-1.12196 -1.06085,-1.12196 -0.45462,0 -1.06085,0.63919 -1.06085,1.11854 0,0.2354 0.33502,0.66178 0.69016,0.87834 0.29953,0.18266 0.39235,0.18721 0.68905,0.0337 z m -18.16551,-1.45451 c 0.16834,-0.11036 0.2207,-0.21063 0.2207,-0.42259 0,-0.37356 -0.16243,-0.51245 -0.67318,-0.5756 -0.5925,-0.0733 -5.12805,-0.0102 -5.30658,0.0738 -0.24113,0.11344 -0.29746,0.31215 -0.20775,0.73278 l 0.0835,0.39142 2.83131,-0.0276 c 2.54451,-0.0247 2.85368,-0.0422 3.05202,-0.17223 z m 40.93381,-0.38304 c 0.63896,-0.0924 0.7731,-0.21049 0.75528,-0.66512 -0.007,-0.18915 -0.0272,-0.35763 -0.0439,-0.37439 -0.0168,-0.0168 -1.33297,-0.0532 -2.92491,-0.0809 l -2.89445,-0.0504 -0.0526,0.19647 c -0.09,0.33646 -0.06,0.70257 0.0661,0.80725 0.0665,0.0552 0.31436,0.12854 0.55083,0.16303 0.61961,0.0903 3.92643,0.0934 4.54369,0.004 z m -40.85655,-1.96559 c 0.21646,-0.0599 0.31954,-0.14098 0.35404,-0.27843 0.16467,-0.65608 -0.0548,-0.70395 -3.31155,-0.72229 -2.14254,-0.0121 -2.69133,0.007 -2.85614,0.0993 -0.25035,0.14017 -0.32355,0.24412 -0.32516,0.46182 -0.002,0.28475 0.18907,0.44905 0.61269,0.52652 0.52535,0.0961 5.12646,0.0237 5.52612,-0.0869 z m 13.01655,-1.02934 c 0.5011,-0.37542 0.62862,-0.85152 0.35032,-1.30795 -0.32373,-0.53093 -0.91848,-0.72069 -1.3712,-0.43749 -0.33343,0.20856 -0.59018,0.62152 -0.59058,0.94989 -5.7e-4,0.45513 0.79805,1.1596 1.18295,1.04352 0.0898,-0.0271 0.28259,-0.13866 0.42851,-0.24797 z m -12.68443,-1.24535 c 0.40112,-0.15251 0.42659,-0.78248 0.0403,-0.99765 -0.24289,-0.1353 -4.15091,-0.19817 -5.36514,-0.0863 -0.72968,0.0672 -0.87311,0.10466 -0.99965,0.26092 -0.27926,0.34489 -0.12679,0.70451 0.34589,0.81579 0.39542,0.0931 5.73575,0.0996 5.97857,0.007 z m 8.21653,43.59669 c -1.38793,-0.1429 -3.34478,-0.4952 -4.30461,-0.775 -0.50647,-0.1476 -0.59163,-0.1986 -0.59163,-0.3548 0,-0.2239 0.4812,-1.5824 1.47333,-4.1596 0.41467,-1.0773 0.75051,-2.0136 0.74631,-2.081 -0.004,-0.068 -0.52609,-1.5729 -1.15975,-3.3457 -1.84935,-5.174 -1.80747,-5.0446 -1.64699,-5.0937 0.0761,-0.023 0.6506,-0.1537 1.27677,-0.2898 0.62617,-0.1361 1.1642,-0.2749 1.19561,-0.3086 0.10024,-0.1071 0.479,-4.8969 0.48053,-6.0764 9.4e-4,-0.7449 0.0136,-0.7502 1.62443,-0.6804 1.72658,0.074 3.28843,0.2578 4.22329,0.495 0.80542,0.2043 2.47659,0.9436 2.47659,1.0955 0,0.114 -0.0194,0.1125 -0.90907,-0.07 -0.94059,-0.1934 -2.0541,-0.3116 -3.49755,-0.3717 -0.60591,-0.025 -1.47805,-0.067 -1.93809,-0.093 l -0.83644,-0.047 8.1e-4,0.4363 c 4.1e-4,0.24 -0.0425,0.9777 -0.0956,1.6396 -0.053,0.6618 -0.0728,1.2268 -0.0441,1.2555 0.0777,0.078 0.93748,-0.1035 2.17895,-0.4593 0.60591,-0.1736 1.3543,-0.3595 1.66309,-0.413 0.85335,-0.148 2.06947,-0.059 2.92709,0.2132 0.3927,0.1247 0.69922,0.2416 0.68116,0.2597 -0.0181,0.018 -0.24556,0.088 -0.50555,0.1563 -0.67396,0.176 -1.10493,0.4134 -2.64759,1.4588 -2.12964,1.4431 -3.06132,1.8562 -5.42316,2.4043 -0.62835,0.1458 -1.1885,0.2898 -1.24477,0.3199 -0.10784,0.057 0.44995,1.7673 1.75967,5.3931 l 0.63377,1.7544 1.50656,-0.026 c 0.82861,-0.014 1.72435,-0.062 1.99052,-0.1083 0.88228,-0.1509 2.10321,-0.8906 2.91163,-1.7638 1.06415,-1.1494 1.72953,-2.48 2.90722,-5.814 1.85196,-5.2428 3.5391,-7.7492 5.97875,-8.8821 0.80973,-0.376 1.26311,-0.4827 2.35316,-0.5542 1.39952,-0.092 2.43005,0.2233 3.37076,1.0304 1.40555,1.2057 1.83007,3.5187 0.96821,5.2751 -0.73329,1.4944 -2.06069,2.2297 -4.0369,2.2361 l -0.9009,0 0.24481,0.2017 c 0.31815,0.2621 0.98951,0.5122 1.55216,0.5783 0.24592,0.029 0.44713,0.077 0.44713,0.1062 0,0.029 -0.44411,1.2088 -0.98692,2.6205 -0.5428,1.4118 -1.2416,3.2429 -1.55287,4.069 l -0.56596,1.502 0.17743,0.5381 c 0.0976,0.2959 0.50363,1.3994 0.90232,2.4521 0.3987,1.0528 0.70749,1.9595 0.6862,2.015 -0.0683,0.1781 -0.42868,0.3624 -1.26043,0.6448 -2.32923,0.7906 -5.35243,1.3217 -9.02833,1.586 -1.05236,0.075 -5.50009,0.095 -6.16109,0.027 z m 0.44882,-10.2551 c -0.5745,-0.2679 -0.66954,-0.4011 -0.43917,-0.6158 0.27709,-0.2581 0.84206,-0.4453 1.17904,-0.3905 0.31846,0.051 1.01461,0.4253 1.01461,0.5445 0,0.1125 -0.49501,0.456 -0.80781,0.5608 -0.38372,0.1284 -0.48059,0.1183 -0.94667,-0.099 z m 8.07879,-12.2105 c -2.47114,-1.1956 -4.65653,-1.738 -8.56842,-2.1268 -0.9874,-0.098 -1.83691,-0.2017 -1.88779,-0.2302 -0.10458,-0.058 0.25135,-1.649 1.39139,-6.21699 0.75213,-3.0137 0.82683,-3.2601 0.98824,-3.2601 0.0576,0 1.25583,0.9614 2.66263,2.1363 4.10736,3.43059 8.59819,7.22509 8.70926,7.35899 0.14765,0.1778 0.0485,0.3253 -0.89078,1.3243 -0.44783,0.4762 -0.91499,1.0084 -1.03815,1.1825 -0.12316,0.1742 -0.26065,0.3142 -0.30553,0.3112 -0.0449,0 -0.52227,-0.2186 -1.06085,-0.4792 z m 9.01004,-20.61721 c -0.85429,-0.62723 -2.84008,-2.25973 -6.4793,-5.32655 -1.88561,-1.58904 -3.69462,-3.11217 -4.02001,-3.38474 -0.3254,-0.27258 -0.59163,-0.52028 -0.59163,-0.55045 0,-0.0301 0.24364,-0.28803 0.54142,-0.57304 0.4349,-0.41625 0.94545,-1.01328 1.79735,-2.10175 0.0142,-0.0182 0.47188,0.17793 1.017,0.43581 2.85794,1.35203 4.60347,1.79421 8.70145,2.2042 0.99876,0.0999 1.84132,0.20707 1.87235,0.2381 0.0752,0.0752 -0.0329,0.58558 -0.79752,3.76488 -0.75212,3.12755 -1.37423,5.52148 -1.45874,5.61339 -0.0325,0.0354 -0.29459,-0.10856 -0.58237,-0.31985 z m -16.91602,-9.09243 c -0.52516,-0.13134 -1.28133,-0.58009 -1.81038,-1.07439 -0.87013,-0.81298 -1.2794,-1.85136 -1.2795,-3.24631 -7e-5,-0.93136 0.19216,-1.61273 0.65857,-2.33436 0.78817,-1.21945 2.2462,-1.88678 3.95338,-1.80944 0.48024,0.0217 0.70649,0.004 0.68783,-0.0539 -0.0545,-0.16952 -1.07146,-0.60804 -1.62753,-0.70182 -0.46069,-0.0777 -0.5588,-0.12034 -0.5285,-0.22964 0.0205,-0.0738 0.67967,-1.80504 1.46492,-3.84718 0.78524,-2.04214 1.47044,-3.84497 1.52266,-4.00627 0.10661,-0.32928 0.0238,-0.59353 -1.13271,-3.61633 -0.32169,-0.84076 -0.56392,-1.58329 -0.5383,-1.65005 0.12006,-0.31289 2.12113,-0.97256 4.27286,-1.4086 3.8514,-0.78047 6.86606,-1.00984 10.9943,-0.83649 2.11786,0.0889 3.34568,0.2477 4.87112,0.62991 1.01686,0.25478 1.20837,0.33032 1.20837,0.47666 0,0.19878 -0.45851,1.51388 -1.36798,3.92366 -0.4743,1.2567 -0.86206,2.32162 -0.8617,2.36651 3.3e-4,0.0449 0.64779,1.89933 1.43874,4.121 0.79094,2.22167 1.44854,4.09018 1.46133,4.15225 0.0169,0.0821 -0.30433,0.19353 -1.17824,0.40876 -0.66081,0.16275 -1.25956,0.35398 -1.33054,0.42496 -0.0871,0.0871 -0.15395,0.39191 -0.20565,0.9377 -0.1301,1.37353 -0.32247,4.40998 -0.32247,5.08998 0,0.35534 -0.0283,0.66355 -0.0628,0.68489 -0.10003,0.0618 -3.06116,-0.1035 -4.18062,-0.23341 -1.09378,-0.12692 -1.85872,-0.31368 -2.84915,-0.69563 -0.577,-0.22251 -1.24359,-0.66199 -1.14944,-0.75782 0.0224,-0.0229 0.3713,0.0272 0.77524,0.11111 1.25877,0.26162 2.70724,0.40864 4.53655,0.46047 l 1.76201,0.0499 0.0526,-1.05278 c 0.0289,-0.57903 0.0766,-1.33591 0.10601,-1.68195 l 0.0534,-0.62917 -0.31755,0.048 c -0.30374,0.0459 -1.21033,0.27503 -2.88807,0.72991 -1.12527,0.30509 -2.26837,0.30232 -3.40696,-0.009 -0.46005,-0.12549 -0.83644,-0.25295 -0.83644,-0.28325 0,-0.0303 0.21115,-0.12132 0.46922,-0.20229 0.73046,-0.22918 1.25809,-0.52449 2.88831,-1.61655 1.966,-1.31698 2.88674,-1.69733 5.68579,-2.34872 0.41828,-0.0974 0.77778,-0.22197 0.79888,-0.27696 0.0211,-0.055 -0.52788,-1.67441 -1.21995,-3.59873 l -1.25832,-3.49877 -1.17264,0.0213 c -1.91414,0.0349 -2.52876,0.12225 -3.24421,0.46133 -0.74202,0.35168 -1.68287,1.0529 -2.11657,1.57749 -1.02342,1.23788 -1.64358,2.50305 -2.74114,5.59208 -1.42387,4.00744 -2.52005,6.04986 -4.08028,7.60242 -0.64146,0.63832 -0.96705,0.89306 -1.47586,1.15472 -1.10408,0.56778 -1.62803,0.69556 -2.97854,0.72636 -0.65079,0.0148 -1.32582,-0.009 -1.50006,-0.0522 z m 16.51467,-13.53575 c -0.31939,-0.0985 -0.69389,-0.30846 -0.81906,-0.45929 -0.10062,-0.12125 -0.0855,-0.16022 0.12835,-0.33093 0.3678,-0.29359 0.87774,-0.44341 1.19862,-0.35217 0.40172,0.11423 0.92068,0.43218 0.92068,0.56407 0,0.14557 -0.65168,0.54496 -0.97924,0.60014 -0.13465,0.0227 -0.33686,0.0128 -0.44935,-0.0218 z"
       style="fill-opacity:1" />
    <path
       style="fill-opacity:1"
       d="m 63.157493,956.65992 c -0.10317,-0.0146 -0.17004,-0.005 -0.1914,0.0293 -0.0359,0.0581 -0.0855,3.1786 -0.11133,6.93554 -0.0543,7.8966 0.0353,16.00187 0.18359,16.62305 0.23173,0.97047 1.36283,2.9563 2.26758,3.97852 0.47728,0.53925 0.52942,0.74388 0.49023,1.91601 l -0.0254,0.75195 -1.5039,-1.42968 c -1.53783,-1.46288 -2.74044,-2.45459 -3.91211,-3.24024 l 0,24.66793 c 0.71794,-0.709 0.78455,-0.7558 1.72656,-1.6973 2.38916,-2.3875 4.36948,-4.3418 4.39844,-4.3418 0.029,0 0.25782,0.3109 0.50976,0.6895 0.25194,0.3786 0.69906,0.9825 0.99414,1.3438 0.45008,0.5509 0.56021,0.6441 0.6836,0.5781 0.18197,-0.097 0.8164,-0.8089 0.8164,-0.916 0,-0.043 -0.21393,-0.3455 -0.47656,-0.6719 -0.75138,-0.934 -1.42809,-2.16367 -1.27539,-2.31637 0.0241,-0.024 0.30132,-0.072 0.61719,-0.1055 1.00048,-0.1069 1.46094,-0.54064 1.46094,-1.37694 0,-0.25701 -0.0538,-0.62365 -0.1211,-0.81446 -0.15418,-0.43699 -0.1538,-0.65433 0,-0.94921 0.16808,-0.32228 0.15332,-1.08547 -0.0293,-1.55664 -0.14686,-0.37896 -0.14688,-0.40209 -0.002,-0.71875 0.18944,-0.4143 0.19629,-1.1073 0.0156,-1.61133 -0.13235,-0.36927 -0.13126,-0.40759 0.0137,-0.81055 0.20934,-0.58216 0.18323,-1.13429 -0.0723,-1.57031 -0.32406,-0.55295 -0.53069,-0.64798 -1.49609,-0.68555 l -0.83789,-0.0312 0,-3.89648 0,-3.89453 -0.79492,-0.72071 c -1.1063,-1.00237 -1.16211,-1.08896 -1.16211,-1.77539 0,-0.31094 0.0324,-0.55019 0.0742,-0.53515 0.0417,0.015 0.48112,0.40498 0.97656,0.86718 l 0.90234,0.8418 0.0215,-2.10547 c 0.0221,-2.01422 0.0158,-2.11338 -0.14063,-2.26953 -0.0899,-0.0898 -0.48768,-0.45734 -0.88476,-0.81641 -0.39707,-0.35905 -0.77315,-0.75184 -0.83594,-0.87304 -0.11112,-0.21448 -0.16489,-1.28907 -0.0644,-1.28907 0.0274,0 0.46728,0.39038 0.97851,0.86719 l 0.92969,0.86719 0.006,-0.51953 c 0.0661,-5.40905 0.13779,-8.70548 0.18945,-8.78906 0.18222,-0.29484 0.47119,0.49273 0.62305,1.69921 0.0773,0.61415 0.21533,9.4456 0.24023,15.30079 l 0.01,2.12109 0.36914,-0.4082 c 0.77706,-0.85902 1.68428,-2.385 2.02344,-3.40625 0.2474,-0.74496 0.29113,-1.81646 0.29101,-6.95704 -1.6e-4,-5.51021 -0.0728,-7.45172 -0.32812,-8.70703 -0.65262,-3.20863 -2.84778,-6.05896 -5.8418,-7.58789 -0.75553,-0.38581 -1.39557,-0.63977 -1.70508,-0.68359 z m 0.67383,33.5957 c 0.45988,-0.005 1.04897,-0.003 1.80664,0.004 2.97258,0.0283 3.20453,0.0624 3.26172,0.46484 0.0409,0.28818 -0.0503,0.55656 -0.21094,0.625 -0.3153,0.13431 -1.39837,0.18563 -3.69726,0.17383 -2.15238,-0.011 -2.43301,-0.0279 -2.62891,-0.15625 -0.26088,-0.17099 -0.34388,-0.43412 -0.23047,-0.73242 0.10462,-0.27517 0.31958,-0.36381 1.69922,-0.37891 z m 1.98438,2.39844 c 2.40463,0 2.67675,0.0134 2.87695,0.14453 0.16768,0.10974 0.2207,0.21035 0.2207,0.41797 0,0.2987 -0.11243,0.42832 -0.46484,0.54102 -0.33848,0.10826 -5.47891,0.0473 -5.75781,-0.0684 -0.54201,-0.22488 -0.43933,-0.84319 0.16211,-0.97071 0.16865,-0.0358 1.50239,-0.0644 2.96289,-0.0644 z m -0.17579,2.28711 c 2.7213,-0.003 3.13001,0.0426 3.23243,0.36523 0.0457,0.14403 -0.019,0.69796 -0.0977,0.83594 -0.042,0.0737 -5.4296,0.0628 -5.77734,-0.0117 -0.47526,-0.10168 -0.56644,-0.77306 -0.14258,-1.05078 0.17966,-0.11773 0.52957,-0.13562 2.78515,-0.13867 z m 0.12696,2.36328 c 1.34848,0 2.55158,0.0268 2.67187,0.0605 0.44781,0.12557 0.61968,0.56767 0.35938,0.92383 -0.10262,0.14042 -0.2582,0.16425 -1.36719,0.21093 -1.57645,0.0664 -4.06846,0.0148 -4.34375,-0.0898 -0.3864,-0.14691 -0.37834,-0.7079 0.0137,-0.96484 0.19105,-0.12522 0.48283,-0.14063 2.66602,-0.14063 z"
       id="path3349-7"
       inkscape:connector-curvature="0" />
    <path
       style="fill-opacity:1"
       d="m 50.212885,953.82153 c -2.77001,0.028 -5.18762,0.30332 -8.07617,0.88867 -2.15173,0.43604 -4.15337,1.09531 -4.27344,1.4082 -0.0256,0.0668 0.21738,0.80964 0.53906,1.6504 1.15652,3.0228 1.23942,3.28595 1.13282,3.61523 -0.0522,0.1613 -0.7382,1.96372 -1.52344,4.00586 -0.78524,2.04214 -1.44434,3.77386 -1.46484,3.84766 -0.0303,0.1093 0.06859,0.15276 0.52929,0.23046 0.55607,0.0938 1.57246,0.53166 1.62696,0.70118 0.0187,0.0579 -0.20726,0.0783 -0.6875,0.0566 -1.70719,-0.0773 -3.16496,0.58719 -3.95313,1.80664 -0.46642,0.72163 -0.65827,1.40453 -0.6582,2.33593 1e-4,1.3949 0.40916,2.4331 1.27929,3.2461 0.52905,0.4943 1.28538,0.94282 1.81055,1.07422 0.17424,0.042 0.8492,0.0658 1.5,0.0508 1.35051,-0.0308 1.87443,-0.15681 2.97852,-0.72461 0.50881,-0.2617 0.83315,-0.51795 1.47461,-1.15625 1.56022,-1.5526 2.6562,-3.59413 4.08007,-7.60156 1.09756,-3.08903 1.71877,-4.35392 2.74219,-5.5918 0.4337,-0.52459 1.37516,-1.22645 2.11719,-1.57813 0.71545,-0.33908 1.33001,-0.42603 3.24414,-0.46093 l 1.17187,-0.0215 1.25782,3.49805 c 0.69207,1.92432 1.2418,3.54461 1.2207,3.59961 -0.0211,0.055 -0.38055,0.17994 -0.79883,0.27734 -2.79905,0.65139 -3.71955,1.03068 -5.68554,2.34766 -1.63022,1.09206 -2.15822,1.38801 -2.88868,1.61719 -0.25807,0.081 -0.46875,0.17117 -0.46875,0.20117 0,0.0303 0.3759,0.15575 0.83594,0.28125 1.13859,0.3124 2.28097,0.31684 3.40625,0.0117 1.67773,-0.45484 2.58492,-0.68457 2.88867,-0.73047 l 0.31836,-0.0469 -0.05468,0.62891 c -0.02941,0.346 -0.0766,1.10459 -0.10547,1.68359 l -0.05274,1.05274 -1.76172,-0.0527 c -1.8293,-0.0518 -3.27834,-0.19933 -4.53711,-0.46093 -0.40394,-0.0842 -0.75299,-0.13433 -0.77539,-0.11133 -0.0941,0.0959 0.57339,0.53531 1.15039,0.75781 0.99043,0.382 1.75388,0.57037 2.84766,0.69727 1.11945,0.1299 4.08161,0.29442 4.18164,0.23242 0.0346,-0.0214 0.0625,-0.33025 0.0625,-0.68555 0,-0.68 0.19217,-3.71631 0.32227,-5.08984 0.0517,-0.54579 0.11993,-0.8504 0.20703,-0.9375 0.071,-0.071 0.66926,-0.26108 1.33008,-0.42383 0.87391,-0.21523 1.19463,-0.32806 1.17773,-0.41016 -0.0128,-0.0621 -0.67,-1.93067 -1.46094,-4.15234 -0.79094,-2.22167 -1.43913,-4.07619 -1.43945,-4.12109 -3.7e-4,-0.0449 0.38704,-1.10854 0.86133,-2.36524 0.90947,-2.40978 1.36914,-3.72505 1.36914,-3.92383 0,-0.14634 -0.19214,-0.22178 -1.20899,-0.47656 -1.52545,-0.38221 -2.75322,-0.54196 -4.87109,-0.63086 -1.03206,-0.0433 -1.99464,-0.0601 -2.91797,-0.0508 z m 3.03125,10.16406 c -0.29604,0.0174 -0.65188,0.15677 -0.92773,0.37696 -0.21385,0.17071 -0.22759,0.20882 -0.12696,0.33007 0.12517,0.15083 0.49898,0.36049 0.81836,0.45899 0.1125,0.0346 0.31457,0.0461 0.44922,0.0234 0.32756,-0.0552 0.98047,-0.45404 0.98047,-0.59961 0,-0.13189 -0.52016,-0.45023 -0.92187,-0.56446 -0.0802,-0.0228 -0.17281,-0.0292 -0.27149,-0.0234 l 0,-0.002 z m -8.58594,11.85742 c -0.85189,1.0885 -1.36392,1.68537 -1.79882,2.10157 -0.29778,0.285 -0.54102,0.54422 -0.54102,0.57422 0,0.0301 0.2664,0.27818 0.5918,0.55078 0.3254,0.2726 2.1339,1.79562 4.01953,3.38476 3.63921,3.0668 5.62618,4.69897 6.48047,5.32617 0.28778,0.21131 0.54953,0.35532 0.58203,0.32032 0.0845,-0.092 0.70686,-2.48578 1.45898,-5.61328 0.76463,-3.17934 0.87208,-3.69063 0.79688,-3.76563 -0.031,-0.031 -0.87429,-0.13828 -1.87305,-0.23828 -4.09798,-0.41 -5.84323,-0.85308 -8.70117,-2.20508 -0.54511,-0.2579 -1.00143,-0.45355 -1.01563,-0.43555 z m -12.10156,0.70899 c -0.17398,-0.005 -0.44834,0.14867 -1.04492,0.45312 -1.15432,0.58905 -2.31821,1.38533 -3.55273,2.39649 l 0,7.34179 c 0.0011,0.0286 0.0028,0.0537 0,0.082 l 0,14.2637 0.01953,0.019 c 2.41667,2.4032 4.40978,4.352 4.42968,4.332 0.0199,-0.02 0.36906,-1.355 0.77539,-2.9668 0.58384,-2.316 1.96261,-7.62357 2.17579,-8.37497 0.0358,-0.1264 0.06289,-0.12863 0.26562,-0.0234 0.4325,0.2237 2.60943,1.98497 7.75391,6.27537 2.85002,2.3769 5.38813,4.5002 5.63867,4.7168 l 0.45508,0.3926 0.46289,-0.1582 c 0.99187,-0.3413 3.12624,-0.451 3.97656,-0.2032 1.32215,0.3851 2.72902,1.5329 3.33203,2.7149 0.0976,0.1913 0.2383,0.3704 0.3125,0.3984 0.1838,0.07 1.62235,-0.6795 2.79492,-1.459 0.57468,-0.3821 1.13317,-0.7943 1.68946,-1.2363 l 0,-22.04489 c -2.30003,-2.27178 -4.20622,-4.11511 -4.2461,-4.10156 -0.0413,0.0138 -0.21857,0.60977 -0.39453,1.32617 -0.37946,1.54484 -2.30893,9.03088 -2.48633,9.64648 -0.0679,0.2356 -0.1536,0.42969 -0.1914,0.42969 -0.22279,0 -2.7581,-2.05222 -9.42383,-7.6289 l -4.56641,-3.82032 -0.33008,0.0937 c -1.02275,0.2961 -1.48647,0.34927 -2.81835,0.32227 l -1.34571,-0.0254 -0.6914,-0.35352 c -1.23311,-0.6286 -1.91397,-1.24585 -2.54883,-2.31445 -0.19383,-0.3262 -0.26743,-0.48933 -0.44141,-0.49414 z m 7.12109,10.08789 c 0.37345,-0.0412 0.76892,0.16627 1.01172,0.56445 0.2783,0.4565 0.15149,0.9332 -0.34961,1.3086 -0.14591,0.1093 -0.33793,0.21909 -0.42773,0.24609 -0.3849,0.116 -1.18416,-0.58781 -1.18359,-1.04297 4e-4,-0.3283 0.25641,-0.74062 0.58984,-0.94922 0.11318,-0.0708 0.23489,-0.11322 0.35937,-0.12695 z m 5.41602,4.67383 c 0.4563,0 1.06055,0.64044 1.06055,1.12304 0,0.2368 -0.4071,0.73491 -0.74219,0.90821 -0.29669,0.1532 -0.38992,0.14929 -0.68945,-0.0332 -0.35514,-0.2166 -0.69141,-0.64155 -0.69141,-0.87695 0,-0.4793 0.60787,-1.11914 1.0625,-1.11914 l 0,-0.002 z m 5.30859,4.67773 c 0.41453,-6e-4 1.0542,0.64488 1.05469,1.0625 3.3e-4,0.2863 -0.27552,0.70674 -0.58984,0.89844 -0.44333,0.2703 -0.76257,0.21784 -1.17383,-0.19336 -0.28057,-0.2807 -0.35766,-0.41747 -0.35742,-0.63477 5.9e-4,-0.52942 0.56843,-1.13201 1.0664,-1.13281 z m -14.08007,0.57227 c -0.16141,0 -0.23614,0.24802 -0.98828,3.26171 -1.14004,4.56787 -1.49522,6.15877 -1.39063,6.21677 0.0509,0.029 0.89931,0.1305 1.88672,0.2285 3.91189,0.3888 6.09722,0.9333 8.56836,2.1289 0.5386,0.2606 1.01761,0.4785 1.0625,0.4785 0.0449,0 0.18153,-0.1383 0.30469,-0.3125 0.12316,-0.1741 0.59124,-0.7054 1.03906,-1.1816 0.93928,-0.999 1.03827,-1.1484 0.89062,-1.3262 -0.11107,-0.1339 -4.60162,-3.9249 -8.70898,-7.35541 -1.40679,-1.175 -2.60646,-2.13867 -2.66406,-2.13867 z m 15.69336,9.41598 c -1.09005,0.072 -1.54378,0.1767 -2.35352,0.5527 -2.43965,1.1329 -4.12655,3.64 -5.97852,8.8828 -1.17769,3.334 -1.84211,4.6651 -2.90625,5.8145 -0.80843,0.8732 -2.02983,1.6108 -2.91211,1.7617 -0.26618,0.046 -1.16162,0.093 -1.99023,0.1074 l -1.50586,0.027 -0.63476,-1.7559 c -1.30972,-3.6258 -1.86761,-5.3356 -1.75977,-5.3926 0.0563,-0.03 0.61579,-0.1745 1.24414,-0.3203 2.36184,-0.5481 3.29419,-0.9612 5.42383,-2.4043 1.54267,-1.0454 1.97447,-1.2829 2.64844,-1.4589 0.25998,-0.068 0.48776,-0.1383 0.50586,-0.1563 0.0181,-0.018 -0.28894,-0.1351 -0.68165,-0.2598 -0.85761,-0.2722 -2.07438,-0.3609 -2.92773,-0.2129 -0.30879,0.053 -1.0562,0.2405 -1.66211,0.4141 -1.24146,0.3558 -2.10199,0.537 -2.17969,0.459 -0.0288,-0.029 -0.008,-0.5941 0.04493,-1.2559 0.0531,-0.6619 0.09425,-1.3986 0.09375,-1.6386 l 0,-0.4375 0.83593,0.047 c 0.46005,0.026 1.33355,0.071 1.93946,0.096 1.44345,0.06 2.55549,0.1777 3.49609,0.3711 0.88966,0.1825 0.91016,0.1827 0.91016,0.068 0,-0.1519 -1.67115,-0.8914 -2.47657,-1.0957 -0.93486,-0.2372 -2.49804,-0.4201 -4.22461,-0.4941 -1.61094,-0.07 -1.6221,-0.065 -1.62304,0.6796 -0.002,1.1795 -0.38024,5.9691 -0.48047,6.0762 -0.0314,0.034 -0.56913,0.1725 -1.19531,0.3086 -0.62617,0.1361 -1.20135,0.268 -1.27735,0.291 -0.16047,0.049 -0.20286,-0.08 1.64649,5.0938 0.63366,1.7728 1.15615,3.2777 1.16015,3.3457 0.004,0.067 -0.33141,1.0028 -0.74609,2.0801 -0.99213,2.5772 -1.47461,3.9362 -1.47461,4.1601 0,0.1562 0.0853,0.2059 0.5918,0.3535 0.95983,0.2798 2.91676,0.6325 4.30468,0.7754 0.661,0.068 5.10975,0.052 6.16211,-0.023 3.6759,-0.2643 6.69811,-0.7954 9.02735,-1.586 0.83174,-0.2824 1.19332,-0.4683 1.26172,-0.6464 0.0213,-0.055 -0.28881,-0.9609 -0.6875,-2.0137 -0.3987,-1.0527 -0.80475,-2.1572 -0.90235,-2.4531 l -0.17773,-0.5372 0.5664,-1.5019 c 0.31128,-0.8261 1.00993,-2.6585 1.55274,-4.0703 0.5428,-1.4117 0.98828,-2.5902 0.98828,-2.6192 0,-0.029 -0.20134,-0.078 -0.44727,-0.1074 -0.56264,-0.066 -1.23457,-0.316 -1.55273,-0.5781 l -0.24414,-0.2012 0.90039,0 c 1.97621,-0.01 3.30382,-0.7419 4.03711,-2.2363 0.86185,-1.7564 0.4368,-4.0697 -0.96875,-5.2754 -0.94071,-0.8071 -1.97156,-1.1213 -3.37109,-1.0293 l 0,0 z m -15.24414,13.623 c -0.31423,0.042 -0.68281,0.1951 -0.89063,0.3887 -0.23036,0.2147 -0.13505,0.3493 0.43945,0.6172 0.46609,0.2173 0.56355,0.2277 0.94727,0.1 0.3128,-0.1048 0.80664,-0.448 0.80664,-0.5605 0,-0.1192 -0.69521,-0.494 -1.01367,-0.545 -0.08425,-0.014 -0.18432,-0.014 -0.28906,0 z"
       id="path3351-6"
       inkscape:connector-curvature="0" />
    <path
       style="fill-opacity:1"
       d="m 28.749748,978.68455 c -0.28287,0.27844 -0.47321,0.46091 -0.77148,0.75586 l -4.36914,4.32227 -0.53711,-0.79102 c -0.5741,-0.8452 -1.41662,-1.89258 -1.52148,-1.89258 -0.11901,0 -0.9043,0.88679 -0.9043,1.02149 0,0.074 0.27934,0.48571 0.61914,0.91601 0.67399,0.8533 1.11956,1.64868 1.08008,1.92578 -0.022,0.1541 -0.0932,0.18387 -0.56445,0.23047 -0.85479,0.085 -1.27123,0.3837 -1.47461,1.0625 -0.0782,0.2609 -0.0694,0.42565 0.043,0.90625 0.16727,0.7152 0.16751,0.81535 0.004,1.28125 -0.1452,0.4142 -0.11405,0.85306 0.10742,1.47657 0.13632,0.3839 0.13574,0.40786 -0.0156,0.66406 -0.21522,0.3643 -0.2195,1.2105 -0.01,1.6758 0.15336,0.3402 0.15211,0.3472 -0.0215,0.8008 -0.22957,0.5999 -0.22042,0.9713 0.0352,1.4843 0.3076,0.6172 0.61776,0.781 1.5625,0.8223 l 0.75782,0.033 0,3.8398 0,3.83994 1.02148,0.9844 c 1.02119,0.9842 1.02166,0.9865 1.01172,1.3535 -0.0222,0.8191 -0.022,0.8187 -1.02734,-0.125 -0.50088,-0.4701 -0.93251,-0.8555 -0.95899,-0.8555 -0.0265,0 -0.0459,0.9644 -0.0449,2.1426 l 0.002,2.1426 0.85938,0.7734 c 1.15546,1.0392 1.27831,1.2628 1.125,2.0293 l -0.0488,0.252 -0.89453,-0.834 c -0.4916,-0.4586 -0.92201,-0.8449 -0.95703,-0.8575 -0.035,-0.013 -0.0847,2.007 -0.10938,4.4883 -0.027,2.7073 -0.0779,4.5925 -0.12695,4.7149 -0.0812,0.2029 -0.0814,0.2035 -0.2207,-0.1211 -0.42529,-0.9909 -0.52555,-3.3233 -0.52735,-12.3086 -7.3e-4,-3.8325 -0.0328,-6.6661 -0.0742,-6.6504 -0.26198,0.099 -1.50781,1.8445 -1.96484,2.7539 -0.55239,1.0991 -0.66015,1.5812 -0.74023,3.3105 -0.16581,3.5806 -0.0422,11.2897 0.20703,12.961 0.41379,2.7746 1.97438,5.3605 4.25586,7.0488 0.83683,0.6192 2.70992,1.5838 3.60937,1.8594 l 0.19336,0.059 -0.0606,-11.9434 -0.002,0 -0.0606,-11.9433 -0.39062,-0.8145 c -0.45958,-0.9577 -1.34968,-2.3171 -1.99219,-3.0449 l -0.45312,-0.51564 0,-1.0332 0,-1.0313 0.38671,0.3672 c 0.21319,0.2026 0.84718,0.8059 1.40821,1.3398 0.86312,0.82134 1.70093,1.53034 2.55468,2.17004 l 0,-23.04695 z m -1.60156,7.42774 0.0527,0.19726 c 0.09,0.3364 0.0598,0.70194 -0.0664,0.80664 -0.0665,0.055 -0.31431,0.12771 -0.55078,0.16211 -0.61961,0.09 -3.92571,0.093 -4.54297,0 l 0,0.004 c -0.63896,-0.092 -0.77368,-0.20946 -0.75586,-0.66406 0.007,-0.18921 0.0262,-0.35821 0.043,-0.375 0.0168,-0.017 1.33384,-0.0521 2.92578,-0.0801 l 2.89453,-0.0508 z m -5.76562,2.39257 2.83398,0 c 3.16621,0 3.22692,0.01 3.26758,0.49024 0.0424,0.5008 -0.11115,0.6049 -0.97656,0.6582 -1.20182,0.074 -3.6363,0.072 -4.34766,-0.002 -0.52558,-0.055 -0.67822,-0.10305 -0.79883,-0.25195 -0.0819,-0.1011 -0.13259,-0.24216 -0.11328,-0.31446 0.0193,-0.072 0.0585,-0.23207 0.0859,-0.35547 l 0.0488,-0.22461 z m 3.35156,2.40625 c 3.09389,0 3.03627,-0.0106 2.99414,0.56446 -0.0386,0.52599 -0.14146,0.54159 -3.24805,0.50979 -1.70852,-0.018 -2.72972,-0.061 -2.87109,-0.1192 l 0,0 c -0.51072,-0.2124 -0.46328,-0.77684 0.0742,-0.89064 0.17034,-0.036 1.54292,-0.0664 3.05078,-0.0664 z m 1.91602,2.27535 c 0.57967,0.013 1.00214,0.043 1.10937,0.088 0.37174,0.1574 0.28807,0.9641 -0.10937,1.0528 -0.24729,0.055 -5.57469,-0.019 -5.92774,-0.082 -0.49726,-0.09 -0.64665,-0.6377 -0.23437,-0.8593 0.27321,-0.1469 3.42309,-0.2391 5.16211,-0.1993 z"
       id="path3351-2"
       inkscape:connector-curvature="0" />
  </g>
</svg>
