<?xml version="1.0" encoding="UTF-8" standalone="no"?>
<!-- Created with Inkscape (http://www.inkscape.org/) -->

<svg
   xmlns:dc="http://purl.org/dc/elements/1.1/"
   xmlns:cc="http://creativecommons.org/ns#"
   xmlns:rdf="http://www.w3.org/1999/02/22-rdf-syntax-ns#"
   xmlns:svg="http://www.w3.org/2000/svg"
   xmlns="http://www.w3.org/2000/svg"
   xmlns:sodipodi="http://sodipodi.sourceforge.net/DTD/sodipodi-0.dtd"
   xmlns:inkscape="http://www.inkscape.org/namespaces/inkscape"
   width="50"
   height="50"
   viewBox="0 0 13.229166 13.229167"
   version="1.1"
   id="svg8"
   inkscape:version="0.92.3 (2405546, 2018-03-11)"
   sodipodi:docname="joker.svg">
  <defs
     id="defs2" />
  <sodipodi:namedview
     id="base"
     pagecolor="#ffffff"
     bordercolor="#666666"
     borderopacity="1.0"
     inkscape:pageopacity="0.0"
     inkscape:pageshadow="2"
     inkscape:zoom="7.8532169"
     inkscape:cx="24.987289"
     inkscape:cy="18.789505"
     inkscape:document-units="mm"
     inkscape:current-layer="layer1"
     showgrid="false"
     units="px"
     inkscape:window-width="1280"
     inkscape:window-height="998"
     inkscape:window-x="0"
     inkscape:window-y="0"
     inkscape:window-maximized="1" />
  <metadata
     id="metadata5">
    <rdf:RDF>
      <cc:Work
         rdf:about="">
        <dc:format>image/svg+xml</dc:format>
        <dc:type
           rdf:resource="http://purl.org/dc/dcmitype/StillImage" />
        <dc:title></dc:title>
      </cc:Work>
    </rdf:RDF>
  </metadata>
  <g
     inkscape:label="Camada 1"
     inkscape:groupmode="layer"
     id="layer1"
     transform="translate(0,-283.77082)">
    <path
       inkscape:connector-curvature="0"
       style="opacity:1;fill:#000000;fill-opacity:1;fill-rule:nonzero;stroke:none;stroke-width:0.26458332;stroke-linecap:butt;stroke-linejoin:round;stroke-miterlimit:4;stroke-dasharray:none;stroke-opacity:0.54901961"
       d="m 7.6442622,285.52103 c -0.08033,0 -0.726295,0.66354 -1.435572,1.47484 -0.7092737,0.81131 -1.3467595,1.47537 -1.4164507,1.47537 -0.069691,0 -0.5222163,-0.13363 -1.0056233,-0.29714 -0.4834099,-0.16352 -0.9374489,-0.28557 -1.009241,-0.27079 -0.071795,0.0148 -0.3374146,0.44736 -0.5901446,0.96118 -0.3639159,0.73987 -0.5106765,0.94559 -0.7053834,0.98806 -0.1946804,0.0424 -0.2459797,0.11405 -0.2459799,0.34416 0,0.24368 0.043667,0.29542 0.2697511,0.32143 0.2077429,0.0238 0.2948834,-0.0246 0.3803386,-0.21239 0.076475,-0.16783 0.2860995,-0.3073 0.6748941,-0.44907 0.3101022,-0.11305 0.612788,-0.20567 0.6728272,-0.20567 0.060042,0 0.286834,0.2618 0.5038452,0.58136 0.2170139,0.31956 0.4509037,0.60376 0.5198647,0.63149 0.1820889,0.0732 4.45582,0.0775 4.645711,0.005 v -5.3e-4 c 0.08814,-0.0338 0.336643,-0.32096 0.552421,-0.63872 0.215773,-0.31777 0.4417393,-0.57826 0.5017793,-0.57826 0.060041,0 0.3627225,0.0926 0.6728275,0.20567 0.388792,0.14177 0.598419,0.28124 0.674894,0.44907 0.08545,0.18759 0.172598,0.23631 0.380338,0.21239 0.212286,-0.0243 0.276565,-0.0892 0.301274,-0.30438 0.02646,-0.2304 -0.01773,-0.29004 -0.28112,-0.38188 -0.265626,-0.0926 -0.376529,-0.24648 -0.74259,-1.02992 -0.236681,-0.50653 -0.488701,-0.92087 -0.560173,-0.92087 -0.07147,0 -0.5897428,0.15486 -1.1518678,0.34416 -0.562123,0.18931 -1.079814,0.34417 -1.150318,0.34417 -0.09226,0 -0.128157,-0.1795 -0.128157,-0.6413 0,-0.5754 0.02274,-0.65051 0.221175,-0.72451 0.440653,-0.1643 1.164123,-0.22443 1.303796,-0.10852 0.07478,0.0621 0.238095,0.0983 0.3627693,0.0806 0.1791635,-0.0254 0.2263435,-0.0939 0.2263435,-0.32712 0,-0.276 -0.02836,-0.29872 -0.4423518,-0.34984 -0.298651,-0.0369 -0.672058,-0.20471 -1.14825,-0.51625 -0.388077,-0.2539 -0.771295,-0.46147 -0.851627,-0.46147 z m -3.3600021,5.75262 0.030489,0.49196 c 0.061606,1.00512 0.5216112,2.1769 1.1234457,2.86236 0.5211444,0.59354 1.1758844,0.77686 1.7378784,0.48627 0.821423,-0.42479 1.617015,-1.99222 1.700155,-3.34863 l 0.03049,-0.49196 h -2.31097 z m 3.3625851,0.74104 c 0.410054,-0.004 0.51406,0.17779 0.232027,0.40618 -0.215426,0.17444 -0.510761,0.2191 -0.766878,0.11575 -0.336322,-0.13573 0.05445,-0.51717 0.534851,-0.52193 z m -2.0939286,5.3e-4 c 0.1189209,0.0106 0.2561116,0.0455 0.3989416,0.11059 0.282652,0.1288 0.327473,0.32664 0.09457,0.41599 -0.2706183,0.10385 -0.5040975,0.0655 -0.734322,-0.12092 -0.3091416,-0.25033 -0.1159505,-0.43748 0.2408124,-0.40566 z m 1.8401976,1.49706 c 0.162992,-0.0164 0.08985,0.22474 -0.182934,0.53589 -0.305703,0.34867 -0.567436,0.44598 -0.872816,0.32401 -0.225252,-0.09 -0.6268346,-0.59522 -0.6268346,-0.78858 0,-0.0737 0.064813,-0.0916 0.1720826,-0.0481 0.446381,0.1814 0.735049,0.22551 0.983402,0.15089 0.148738,-0.0447 0.347701,-0.11242 0.442351,-0.15089 0.03302,-0.0134 0.06146,-0.0209 0.08475,-0.0233 z"
       id="rect4155" />
  </g>
</svg>
