<?xml version="1.0" encoding="UTF-8" standalone="no"?>
<!-- Created with Inkscape (http://www.inkscape.org/) -->

<svg
   xmlns:dc="http://purl.org/dc/elements/1.1/"
   xmlns:cc="http://creativecommons.org/ns#"
   xmlns:rdf="http://www.w3.org/1999/02/22-rdf-syntax-ns#"
   xmlns:svg="http://www.w3.org/2000/svg"
   xmlns="http://www.w3.org/2000/svg"
   xmlns:sodipodi="http://sodipodi.sourceforge.net/DTD/sodipodi-0.dtd"
   xmlns:inkscape="http://www.inkscape.org/namespaces/inkscape"
   width="90"
   height="120"
   viewBox="0 0 90.000001 120"
   id="svg2"
   version="1.1"
   inkscape:version="0.91 r13725"
   sodipodi:docname="king.svg">
  <defs
     id="defs4" />
  <sodipodi:namedview
     id="base"
     pagecolor="#ffffff"
     bordercolor="#666666"
     borderopacity="1.0"
     inkscape:pageopacity="0.0"
     inkscape:pageshadow="2"
     inkscape:zoom="3.5203227"
     inkscape:cx="136.5305"
     inkscape:cy="51.313478"
     inkscape:document-units="px"
     inkscape:current-layer="g3358"
     showgrid="false"
     units="px"
     inkscape:window-width="1280"
     inkscape:window-height="1000"
     inkscape:window-x="0"
     inkscape:window-y="24"
     inkscape:window-maximized="1" />
  <metadata
     id="metadata7">
    <rdf:RDF>
      <cc:Work
         rdf:about="">
        <dc:format>image/svg+xml</dc:format>
        <dc:type
           rdf:resource="http://purl.org/dc/dcmitype/StillImage" />
        <dc:title></dc:title>
      </cc:Work>
    </rdf:RDF>
  </metadata>
  <g
     inkscape:label="Camada 1"
     inkscape:groupmode="layer"
     id="layer1"
     transform="translate(0,-932.36216)">
    <g
       id="g3358"
       transform="translate(20.158868,-6.4141851)">
      <path
         style="fill:#1c1b18"
         d="m 23.973414,1036.2956 c -0.46831,-1.41 -1.09608,-1.6513 -2.29465,-0.8823 -0.81137,0.5207 -0.90361,0.4885 -1.49595,-0.5222 -0.20212,-0.3449 -0.46018,-0.6627 -0.57346,-0.7061 -0.32759,-0.1257 -0.79872,0.2979 -1.280342,1.1513 -0.24528,0.4346 -0.505353,0.7902 -0.577939,0.7902 -0.07257,0 -0.131976,-0.2581 -0.131976,-0.5735 0,-0.657 1.057773,-5.5149 1.29896,-5.9656 0.260857,-0.4873 0.184557,-1.652 -0.217554,-3.3207 -0.42949,-1.7822 -0.371506,-2.1511 0.361111,-2.2976 0.59331,-0.1186 0.68968,-0.5478 0.46041,-2.0502 -0.20239,-1.3262 -0.0758,-2.3085 0.70399,-5.4639 0.38956,-1.5763 0.43824,-1.6787 1.04902,-2.2047 0.59486,-0.5123 0.62827,-0.5784 0.4689,-0.9283 -0.0947,-0.2078 -0.74803,-0.7642 -1.45831,-1.2417 -1.653902,-1.1121 -1.746199,-1.2231 -1.525164,-1.8344 0.2131,-0.5893 0.221623,-1.1107 0.01818,-1.1107 -0.411899,0 -2.275711,0.4882 -2.43344,0.6375 -0.141897,0.1342 0.01914,2.0538 0.76597,9.1295 0.520109,4.9278 0.942858,9.1942 0.939435,9.481 -0.0074,0.5881 -2.499498,6.5032 -2.740317,6.5032 -0.08112,0 -0.818492,-1.3459 -1.638589,-2.9909 l -1.491083,-2.991 0.582745,-9.4105 c 0.338076,-5.4595 0.52886,-9.4718 0.454404,-9.5564 -0.07058,-0.08 -0.602801,-0.2787 -1.182697,-0.4409 l -1.054358,-0.2951 0,-0.8711 0,-0.8711 0.672694,-0.147 c 1.092873,-0.2387 1.135835,-0.3179 1.092601,-2.0164 -0.02878,-1.1295 0.01295,-1.5461 0.173819,-1.736 0.188407,-0.2223 0.167938,-0.3017 -0.186361,-0.7228 l -0.398025,-0.473 0.07191,-7.6582 0.07191,-7.65816 0.32934,-0.34218 c 0.181135,-0.1882 0.795963,-0.60919 1.366284,-0.93553 1.479527,-0.84658 2.407967,-1.48002 2.492616,-1.7006 0.04026,-0.10489 -0.08114,-0.499 -0.269751,-0.87581 -0.188606,-0.37682 -0.492406,-1.1447 -0.675101,-1.70641 -0.615306,-1.8918 -1.264315,-2.755 -2.214217,-2.94499 -0.630703,-0.12613 -0.754848,-0.49665 -0.640132,-1.91052 0.136576,-1.68324 0.668005,-3.68532 1.391632,-5.24278 l 0.604237,-1.30049 -0.509975,-3.63816 c -0.700081,-4.99435 -0.733916,-5.316 -0.559148,-5.316 0.08183,0 0.35095,0.35822 0.598047,0.79605 0.494128,0.87554 0.91391,1.20877 1.152933,0.9152 0.08029,-0.0986 0.256341,-0.44193 0.39121,-0.76291 l 0.245235,-0.58359 0.390076,0.44997 c 0.214536,0.24749 0.498986,0.48933 0.632095,0.53744 0.264114,0.0954 1.581717,-0.66365 1.581717,-0.91125 0,-0.28496 0.470388,-0.14691 0.761808,0.22357 0.40321,0.5126 0.8453,0.42166 1.05971,-0.21798 0.19907,-0.59384 0.45052,-0.7269 0.58327,-0.30863 0.13758,0.43347 0.33542,0.37054 0.68205,-0.21697 0.16771,-0.28423 0.37571,-0.49319 0.46223,-0.46435 0.0865,0.0289 0.23367,0.35181 0.32702,0.71771 0.1926,0.75501 0.31379,0.99293 0.50575,0.99293 0.0735,0 0.59124,-0.39392 1.15065,-0.87539 0.5594,-0.48147 1.04822,-0.8754 1.08626,-0.8754 0.038,0 0.17473,0.31784 0.30376,0.7063 0.46832,1.40998 1.09609,1.65134 2.29465,0.88223 0.81137,-0.52067 0.90361,-0.48846 1.49595,0.52229 0.20212,0.3449 0.46018,0.66264 0.57346,0.70611 0.32759,0.12572 0.79873,-0.29794 1.28034,-1.15132 0.24529,-0.43462 0.50536,-0.79021 0.57794,-0.79021 0.0726,0 0.13198,0.25806 0.13198,0.57348 0,0.65701 -1.05777,5.5149 -1.29895,5.96556 -0.26087,0.48743 -0.18457,1.65209 0.21754,3.32069 0.42949,1.78222 0.37151,2.15115 -0.36111,2.29767 -0.59331,0.11866 -0.68968,0.54782 -0.4604,2.05022 0.20239,1.32621 0.0758,2.30849 -0.70399,5.46393 -0.38957,1.57629 -0.43825,1.67859 -1.04903,2.20463 -0.59486,0.51233 -0.62827,0.57848 -0.4689,0.92826 0.0947,0.20789 0.74804,0.76421 1.45832,1.2418 1.65389,1.11208 1.74619,1.22309 1.52516,1.83435 -0.2131,0.58933 -0.22163,1.11075 -0.0182,1.11075 0.4119,0 2.27572,-0.48825 2.43344,-0.63748 0.1419,-0.13425 -0.0191,-2.05389 -0.76597,-9.12958 -0.52011,-4.92777 -0.94285,-9.19419 -0.93944,-9.48093 0.007,-0.58814 2.4995,-6.50321 2.74032,-6.50321 0.0811,0 0.81849,1.34592 1.63859,2.99093 l 1.49108,2.99094 -0.58274,9.41049 c -0.33808,5.45948 -0.52886,9.47176 -0.45441,9.5564 0.0706,0.0802 0.60281,0.27866 1.1827,0.44092 l 1.05436,0.29502 0,0.87119 0,0.8711 -0.6727,0.1469 c -1.09287,0.2387 -1.13583,0.318 -1.09259,2.0165 0.0292,1.1486 -0.0117,1.5445 -0.18021,1.743 -0.19638,0.2313 -0.18306,0.2941 0.13424,0.6322 l 0.35226,0.3754 0,7.7369 0,7.737 -0.36062,0.3607 c -0.19835,0.1985 -0.82207,0.6248 -1.38605,0.9474 -1.46799,0.8398 -2.39662,1.4738 -2.48108,1.6939 -0.0403,0.1048 0.0811,0.499 0.26975,0.8757 0.1886,0.3769 0.4924,1.1448 0.6751,1.7064 0.61531,1.8918 1.26432,2.755 2.21422,2.9451 0.63071,0.1261 0.75485,0.4966 0.64013,1.9105 -0.13658,1.6832 -0.66801,3.6853 -1.39163,5.2427 l -0.60424,1.3006 0.50997,3.6381 c 0.70009,4.9944 0.73392,5.316 0.55915,5.316 -0.0818,0 -0.35095,-0.3582 -0.59804,-0.7961 -0.49413,-0.8755 -0.91391,-1.2087 -1.15294,-0.9151 -0.0803,0.099 -0.25633,0.4419 -0.39121,0.7628 l -0.24523,0.5836 -0.39007,-0.4499 c -0.21454,-0.2475 -0.49899,-0.4894 -0.6321,-0.5374 -0.26412,-0.096 -1.58172,0.6636 -1.58172,0.9112 0,0.2849 -0.47038,0.1469 -0.7618,-0.2236 -0.40321,-0.5126 -0.84531,-0.4216 -1.05972,0.218 -0.19906,0.5939 -0.45051,0.7269 -0.58327,0.3087 -0.13757,-0.4336 -0.33542,-0.3706 -0.68205,0.2169 -0.16771,0.2842 -0.37571,0.4932 -0.46222,0.4644 -0.0865,-0.029 -0.23368,-0.3518 -0.32702,-0.7178 -0.19261,-0.755 -0.31379,-0.9929 -0.50576,-0.9929 -0.0735,0 -0.59123,0.3939 -1.15065,0.8754 -0.5594,0.4815 -1.04822,0.8754 -1.08626,0.8754 -0.038,0 -0.17473,-0.3178 -0.30376,-0.7063 z m 0.94065,-2.0658 c 0.32019,-0.6276 0.70962,-0.764 0.83311,-0.2918 0.109,0.4168 0.22177,0.3647 0.55321,-0.2557 0.40747,-0.7627 0.67194,-0.6964 1.0137,0.2544 l 0.28798,0.8011 0.20774,-0.5458 c 0.24852,-0.6529 0.62724,-0.7162 0.88612,-0.148 l 0.18123,0.3977 0.29849,-0.6896 c 0.38022,-0.8782 0.72473,-0.9106 1.04971,-0.098 0.26177,0.6542 0.45293,0.6513 0.59799,-0.01 0.12274,-0.5588 0.54204,-0.5771 0.80084,-0.035 l 0.19149,0.4013 0.21647,-0.5472 c 0.27255,-0.6888 0.53849,-0.6927 0.93912,-0.014 0.33978,0.5759 0.41221,0.526 0.61617,-0.424 0.10406,-0.4847 0.41989,-0.518 0.72885,-0.077 0.30382,0.4337 0.30004,0.3626 -0.1466,-2.7518 -0.25163,-1.7548 -0.44345,-2.6598 -0.58722,-2.7707 -0.37342,-0.2879 -3.2609,-0.6597 -5.75042,-0.7405 -1.73461,-0.056 -2.97814,-0.012 -4.44992,0.1597 -2.6402,0.3072 -3.08108,0.4305 -3.19746,0.8942 -0.33765,1.3453 -1.10033,5.2315 -1.03878,5.293 0.0414,0.041 0.23687,-0.099 0.43444,-0.3124 0.19757,-0.2132 0.45933,-0.3876 0.58168,-0.3876 0.12235,0 0.33,-0.1642 0.46144,-0.3647 0.13145,-0.2007 0.28997,-0.3648 0.35228,-0.3648 0.0623,0 0.22399,0.279 0.35931,0.6201 0.13532,0.341 0.42825,0.7881 0.65096,0.9935 0.22272,0.2054 0.44359,0.468 0.49083,0.5836 0.0726,0.1778 0.10879,0.1744 0.23446,-0.022 0.39265,-0.6132 0.71489,-0.9046 0.91524,-0.8278 0.11929,0.046 0.36284,0.4835 0.54121,0.9728 0.17837,0.4891 0.35227,0.8894 0.38645,0.8894 0.0341,0 0.19613,-0.2626 0.35988,-0.5836 z m -9.838781,-1.6414 c -0.128208,-1.5336 -0.35304,-9.6424 -0.452057,-16.3042 -0.0471,-3.1696 -0.116806,-5.9149 -0.154873,-6.1005 -0.05506,-0.2683 -0.150348,-0.3281 -0.46535,-0.2917 -0.336604,0.039 -0.402655,0.1224 -0.439544,0.5562 -0.02385,0.2809 -0.293143,4.5156 -0.598363,9.4105 l -0.554946,8.8999 1.219241,2.4438 c 0.670589,1.3441 1.290135,2.4438 1.376787,2.4438 0.106421,0 0.128848,-0.3432 0.06911,-1.0578 z m 1.607154,-1.7142 0.98523,-2.2615 -0.911297,-8.754 c -1.127253,-10.8284 -0.983965,-9.8482 -1.439496,-9.8482 l -0.368238,0 0.09941,5.6536 c 0.183762,10.4513 0.433538,17.6893 0.604487,17.5166 0.02458,-0.025 0.488026,-1.0627 1.029907,-2.3065 z m 13.739697,-6.602 c 0.77537,-0.8012 1.10589,-1.7457 1.17578,-3.3597 0.0704,-1.6262 0.0344,-1.5797 1.45348,-1.8728 0.80063,-0.1654 0.90842,-0.228 0.90842,-0.5279 0,-0.4667 -0.40186,-1.3915 -0.5617,-1.2927 -0.0715,0.044 -0.17181,0.2888 -0.22278,0.5436 -0.13436,0.6719 -0.34698,0.8559 -0.98876,0.8559 -0.41314,0 -0.594,-0.071 -0.65626,-0.2553 -0.58801,-1.7467 -1.47371,-2.604 -3.4984,-3.386 -0.85172,-0.329 -1.68649,-0.6948 -1.85503,-0.8128 -0.60562,-0.4242 -1.26282,-0.1842 -1.26282,0.4613 0,0.2001 -0.11521,0.3622 -0.29881,0.4205 -0.34269,0.1087 -0.73871,-0.1549 -0.63572,-0.4233 0.0382,-0.1 -0.0658,-0.3033 -0.23108,-0.4529 -0.29334,-0.2654 -0.30937,-0.2652 -0.67292,0.01 -0.4569,0.3449 -0.88717,1.0327 -0.73884,1.181 0.0601,0.06 0.91078,0.091 1.89043,0.068 1.39263,-0.032 1.74337,0 1.60786,0.1357 -0.10623,0.1082 -0.65968,0.1829 -1.42981,0.193 -1.22057,0.016 -1.24748,0.024 -0.94124,0.2716 0.17339,0.1405 0.39843,0.2553 0.50008,0.2553 0.10165,0 0.26722,0.099 0.36794,0.2207 0.11308,0.1362 0.24547,0.1714 0.34614,0.092 0.0897,-0.071 0.42525,-0.176 0.74575,-0.2339 0.3205,-0.058 0.9689,-0.2621 1.4409,-0.454 0.47199,-0.1918 0.91555,-0.3132 0.98568,-0.2699 0.0701,0.043 0.12751,0.3025 0.12751,0.5758 0,0.6393 -0.22311,0.7548 -1.80387,0.9344 -1.46989,0.1671 -2.46305,0.038 -3.76549,-0.4877 -0.50376,-0.2034 -0.96987,-0.3159 -1.03582,-0.25 -0.25046,0.2505 -0.87284,2.3118 -0.94789,3.1396 -0.0745,0.8216 -0.0634,0.8601 0.22635,0.7844 0.16757,-0.044 0.44025,0.015 0.60592,0.1313 0.59673,0.4179 0.21663,1.1713 -0.51992,1.0305 l -0.38515,-0.074 0.084,0.8954 c 0.0461,0.4924 0.17096,1.158 0.27729,1.479 0.17989,0.5429 0.22869,0.5813 0.70158,0.5521 0.27953,-0.018 1.91981,-0.04 3.64508,-0.05 2.35909,-0.014 3.33578,0.035 3.93927,0.1976 0.44135,0.1188 0.83881,0.2233 0.88325,0.2321 0.0445,0.01 0.28729,-0.1972 0.53965,-0.458 z m -5.82924,-3.2524 c -0.14398,-0.3161 -0.12454,-0.4154 0.13126,-0.6713 0.24394,-0.2439 0.35647,-0.2701 0.59994,-0.1398 0.16483,0.088 0.3424,0.2949 0.39458,0.4593 0.22258,0.7013 -0.81833,1.0265 -1.12578,0.3518 z m -1.86436,-1.52 c -0.40066,-0.7854 -0.37885,-1.1482 0.0795,-1.3225 0.51933,-0.1974 0.60555,-0.1778 0.27639,0.062 -0.24674,0.1804 -0.26131,0.2727 -0.12091,0.766 0.0878,0.3085 0.20853,0.6758 0.26827,0.8162 0.22176,0.5212 -0.21585,0.2408 -0.50323,-0.3225 z m 12.29299,-8.5221 c 0.61973,-0.4712 1.12677,-0.937 1.12677,-1.0352 0,-0.2934 -0.55204,-0.7048 -0.81204,-0.605 -0.48344,0.1855 -3.40547,2.3568 -3.41215,2.5354 -0.004,0.1015 0.20217,0.3117 0.45768,0.4671 l 0.46457,0.2825 0.5242,-0.3941 c 0.28831,-0.2168 1.03125,-0.7796 1.65097,-1.2507 z m -12.44698,1.231 c 0.25248,-0.4718 0.18796,-0.5664 -0.86416,-1.266 -0.79006,-0.5254 -1.09744,-0.6544 -1.38605,-0.582 -0.20397,0.052 -0.37085,0.153 -0.37085,0.2261 0,0.1777 2.06703,1.8879 2.29278,1.8969 0.0975,0.01 0.2452,-0.1199 0.32828,-0.275 z m 4.04934,-4.8973 c 0.21645,-0.4413 0.44442,-0.8024 0.5066,-0.8024 0.0622,0 0.28619,0.3447 0.4978,0.766 0.47407,0.9437 0.41406,0.8844 0.77796,0.7689 0.27915,-0.089 0.73889,-0.7539 0.73889,-1.0693 0,-0.073 -0.3654,-0.3752 -0.81199,-0.6716 -0.4466,-0.2966 -0.78682,-0.6177 -0.75604,-0.7137 0.0468,-0.1461 1.13941,-0.83 1.64098,-1.0272 0.15124,-0.06 -0.62348,-0.9711 -0.82526,-0.9711 -0.0628,0 -0.34814,0.3658 -0.63416,0.813 -0.28603,0.4471 -0.59991,0.7863 -0.69751,0.7538 -0.0976,-0.032 -0.4011,-0.4361 -0.67443,-0.8968 l -0.49699,-0.8376 -0.45136,0.4606 -0.45137,0.4606 0.36256,0.2432 c 0.1994,0.1338 0.56051,0.4264 0.80245,0.6501 l 0.43989,0.4068 -0.42148,0.3227 c -1.0808,0.8276 -1.04293,0.7772 -0.86088,1.146 0.0934,0.1892 0.21115,0.4917 0.26172,0.6722 0.16945,0.605 0.62374,0.4003 1.05262,-0.4742 z m -10.678293,-0.1677 c 0.415594,-0.1595 0.12586,-0.4144 -0.600063,-0.5279 -0.755585,-0.1182 -2.198849,-0.015 -2.310326,0.1657 -0.114908,0.1859 0.12198,0.4251 0.49872,0.5035 0.415815,0.087 2.070567,-0.01 2.411669,-0.1413 z m 1.343084,-0.6463 c 0.233598,-0.4578 0.231243,-1.5654 -0.0044,-2.031 -0.102815,-0.2032 -0.311837,-0.3648 -0.472018,-0.3648 -0.227968,0 -0.281013,0.089 -0.256216,0.429 0.01722,0.236 -0.04011,0.515 -0.127288,0.6201 -0.115341,0.139 -0.108077,0.2519 0.02664,0.4143 0.137592,0.1657 0.145254,0.3108 0.02981,0.5642 -0.122717,0.2694 -0.105037,0.3915 0.08407,0.5806 0.297801,0.2978 0.487621,0.2418 0.71932,-0.2124 z m -1.383889,-0.3717 c 0.140426,-0.04 0.255326,-0.1592 0.255326,-0.2633 0,-0.3359 -2.120529,-0.5043 -2.851398,-0.2264 -0.315966,0.1201 -0.35733,0.1878 -0.21767,0.3561 0.09484,0.1143 0.348182,0.2373 0.562982,0.2734 0.417876,0.071 1.828924,-0.018 2.25076,-0.1398 z m -0.07294,-1.0218 c 0.475676,-0.1275 0.402582,-0.4403 -0.127655,-0.5463 -0.720138,-0.1441 -2.16112,-0.1064 -2.481061,0.065 -0.232885,0.1247 -0.256746,0.1981 -0.118448,0.3647 0.180215,0.2172 2.0533,0.2974 2.727164,0.1168 z m 0.03224,-1.0695 c 0.39333,-0.2488 0.0052,-0.3572 -1.302198,-0.3638 -1.302831,-0.01 -1.576094,0.061 -1.398712,0.3484 0.118852,0.1923 2.400613,0.2053 2.70091,0.015 z m 8.468568,-11.0696 c -0.1994,-0.1338 -0.5605,-0.4243 -0.80244,-0.6454 l -0.43989,-0.4023 0.30802,-0.2543 c 0.16941,-0.1399 0.49745,-0.3926 0.72898,-0.5615 0.37614,-0.2745 0.40257,-0.3444 0.24826,-0.6565 -0.095,-0.1922 -0.21406,-0.4972 -0.26463,-0.6777 -0.16944,-0.6049 -0.62374,-0.4003 -1.05261,0.4742 -0.21645,0.4413 -0.44443,0.8024 -0.50661,0.8024 -0.0622,0 -0.28619,-0.3447 -0.4978,-0.766 -0.47407,-0.9437 -0.41406,-0.8844 -0.77796,-0.7689 -0.27915,0.089 -0.73889,0.7539 -0.73889,1.0693 0,0.073 0.3654,0.3751 0.81199,0.6716 0.4466,0.2965 0.78682,0.6177 0.75604,0.7137 -0.0468,0.146 -1.13941,0.8299 -1.64098,1.0271 -0.15124,0.06 0.62349,0.9712 0.82526,0.9712 0.0628,0 0.34814,-0.3659 0.63417,-0.813 0.28602,-0.4471 0.5999,-0.7863 0.6975,-0.7538 0.0976,0.032 0.4011,0.4361 0.67444,0.8968 l 0.49698,0.8376 0.45136,-0.4606 0.45137,-0.4606 z m 12.22662,0.7804 c 0.0308,-0.031 0.0127,-0.1259 -0.0403,-0.2115 -0.10213,-0.1652 -2.22292,-0.2195 -2.62025,-0.067 -0.37579,0.1442 -0.26456,0.3259 0.24339,0.3976 0.49155,0.069 2.3187,-0.021 2.41709,-0.119 z m -3.43318,-0.7289 c -0.0172,-0.2328 0.0401,-0.5093 0.12729,-0.6144 0.11534,-0.1389 0.10807,-0.2518 -0.0266,-0.4142 -0.13875,-0.1671 -0.14562,-0.3101 -0.0274,-0.5695 0.13004,-0.2855 0.10733,-0.3922 -0.129,-0.6061 -0.27119,-0.2454 -0.30049,-0.2459 -0.53761,-0.01 -0.32375,0.3238 -0.35635,2.1109 -0.0453,2.4856 0.3163,0.3811 0.67566,0.2277 0.63869,-0.2726 z m 3.33302,-0.086 c 0.23288,-0.1246 0.25674,-0.1981 0.11844,-0.3647 -0.1228,-0.148 -0.49698,-0.2081 -1.28604,-0.2067 -1.29282,0 -1.7694,0.1019 -1.7694,0.3696 0,0.1054 0.14772,0.2202 0.32827,0.2549 0.67847,0.1307 2.32806,0.097 2.60873,-0.053 z m -0.0762,-1.0171 c 0.3727,-0.1417 0.38321,-0.1682 0.15662,-0.3948 -0.43511,-0.4351 -3.01743,-0.2849 -3.01743,0.1755 0,0.3292 2.14023,0.4933 2.86081,0.2193 z m 0.22709,-1.1269 c 0.0603,-0.06 0.0509,-0.2049 -0.021,-0.3212 -0.14554,-0.2355 -1.93964,-0.3067 -2.67603,-0.1062 -0.56173,0.153 -0.41793,0.4452 0.27709,0.5631 0.66737,0.1133 2.26033,0.024 2.41995,-0.1357 z m -20.462907,-3.77528 c 0.926775,-0.66039 1.595347,-1.2361 1.576586,-1.35759 -0.01788,-0.11602 -0.229682,-0.32606 -0.470575,-0.46675 l -0.437999,-0.25581 -1.602538,1.228 c -0.8814,0.67539 -1.626401,1.29957 -1.655562,1.38707 -0.08425,0.25272 0.450702,0.75038 0.728513,0.67772 0.138829,-0.0363 0.976539,-0.58199 1.861575,-1.21264 z m 19.971677,0.0935 c 0.0238,-0.28085 0.29314,-4.51558 0.59835,-9.41049 l 0.55495,-8.89985 -1.21924,-2.44381 c -0.67059,-1.3441 -1.29014,-2.44381 -1.37678,-2.44381 -0.10643,0 -0.12885,0.34317 -0.0691,1.05776 0.12821,1.53368 0.35304,9.64252 0.45206,16.30424 0.0471,3.16966 0.1168,5.91488 0.15487,6.10049 0.055,0.26835 0.15035,0.32812 0.46535,0.29179 0.3366,-0.0388 0.40265,-0.1224 0.43955,-0.55632 z m -1.48186,-5.06999 c -0.1367,-7.70767 -0.388,-16.16989 -0.50548,-17.02064 l -0.0989,-0.71641 -1.00839,2.3213 -1.00839,2.32129 0.91071,8.75396 c 1.12654,10.82857 0.98324,9.84819 1.43941,9.84819 l 0.36874,0 z m -5.13896,5.12734 c 0.12693,-0.0487 0.23079,-0.14298 0.23079,-0.20948 0,-0.15987 -2.12179,-1.89045 -2.31779,-1.89045 -0.16174,0 -0.4543,0.46162 -0.4543,0.71682 0,0.17654 1.882,1.47166 2.13852,1.47166 0.0946,0 0.27585,-0.0398 0.40278,-0.0886 z m -4.90487,-3.73401 c 0.0963,-0.0963 0.17508,-0.32166 0.17508,-0.50081 0,-0.20015 0.11521,-0.36231 0.2988,-0.42057 0.34269,-0.10877 0.73872,0.15493 0.63573,0.42332 -0.0382,0.0995 0.0658,0.30329 0.23108,0.45285 0.29334,0.26548 0.30937,0.26526 0.67292,-0.009 0.4569,-0.34493 0.88717,-1.03272 0.73884,-1.18105 -0.0601,-0.0601 -0.91078,-0.0908 -1.89043,-0.0682 -1.39262,0.0321 -1.74337,0.002 -1.60787,-0.13563 0.10624,-0.10826 0.65969,-0.18296 1.42982,-0.19298 1.22057,-0.0159 1.24748,-0.0236 0.94123,-0.27168 -0.17339,-0.14042 -0.39842,-0.25531 -0.50007,-0.25531 -0.10165,0 -0.26723,-0.0993 -0.36795,-0.22066 -0.11308,-0.13625 -0.24547,-0.17143 -0.34613,-0.092 -0.0897,0.0708 -0.42525,0.17604 -0.74575,0.23394 -0.3205,0.0579 -0.96891,0.26218 -1.4409,0.45397 -0.47199,0.19179 -0.91555,0.31324 -0.98568,0.2699 -0.0701,-0.0434 -0.12752,-0.30242 -0.12752,-0.57571 0,-0.63929 0.22311,-0.75487 1.80388,-0.93449 1.46988,-0.16702 2.46306,-0.0384 3.76548,0.48768 0.50376,0.20348 0.96989,0.31601 1.03583,0.25007 0.25046,-0.25047 0.87284,-2.31186 0.94789,-3.13957 0.0745,-0.82159 0.0634,-0.86014 -0.22635,-0.78438 -0.16758,0.0438 -0.44025,-0.0152 -0.60593,-0.13131 -0.59672,-0.41797 -0.21663,-1.17136 0.51993,-1.03056 l 0.38514,0.0736 -0.084,-0.89538 c -0.0461,-0.49246 -0.17095,-1.158 -0.27728,-1.47898 -0.17989,-0.543 -0.22869,-0.58141 -0.70158,-0.55217 -0.27954,0.0173 -1.91982,0.0403 -3.64507,0.0512 -2.39788,0.0152 -3.34306,-0.033 -4.01223,-0.20451 l -0.8754,-0.2243 -0.46448,0.44763 c -0.7603,0.73274 -1.111823,1.73228 -1.184358,3.36769 -0.07213,1.626 -0.03621,1.57979 -1.454974,1.87283 -0.800629,0.16537 -0.90842,0.228 -0.90842,0.52787 0,0.46666 0.401861,1.39154 0.561695,1.29275 0.07154,-0.0442 0.171809,-0.2889 0.222779,-0.54371 0.13436,-0.67182 0.346982,-0.85586 0.988763,-0.85586 0.413144,0 0.593999,0.0704 0.656266,0.25532 0.588,1.74669 1.473709,2.60395 3.498389,3.386 0.85172,0.32899 1.6865,0.69475 1.85505,0.8128 0.37102,0.25989 0.85,0.27731 1.08773,0.0395 z m 2.00474,-4.11523 c 0.24674,-0.18042 0.2613,-0.27271 0.1209,-0.76597 -0.0878,-0.30846 -0.20852,-0.67573 -0.26827,-0.81616 -0.22175,-0.52125 0.21586,-0.24084 0.50324,0.32246 0.40066,0.78537 0.37885,1.14826 -0.0795,1.32252 -0.51933,0.19745 -0.60555,0.17784 -0.27639,-0.0629 z m -2.41326,-2.12925 c -0.33306,-0.33306 -0.36903,-0.5939 -0.11672,-0.84621 0.56668,-0.56668 1.45699,0.25192 0.9197,0.84562 -0.3305,0.3652 -0.43828,0.36528 -0.80298,5.9e-4 z m 3.37322,-6.62923 c 1.73898,-0.27587 1.83191,-0.31173 1.94174,-0.74936 0.33608,-1.33902 1.09818,-5.22381 1.03682,-5.28516 -0.0414,-0.0414 -0.23686,0.0992 -0.43444,0.3124 -0.19758,0.21319 -0.45934,0.38762 -0.58169,0.38762 -0.12235,0 -0.32999,0.16413 -0.46144,0.36474 -0.13144,0.20062 -0.29167,0.36475 -0.35604,0.36475 -0.0644,0 -0.2321,-0.30122 -0.37269,-0.66938 -0.1406,-0.36816 -0.40609,-0.76797 -0.58998,-0.88845 -0.18388,-0.12048 -0.37414,-0.3445 -0.4228,-0.49781 -0.12447,-0.39216 -0.24025,-0.34833 -0.61727,0.23371 -0.4251,0.65624 -0.72598,0.64466 -0.99521,-0.0383 -0.11861,-0.30091 -0.30272,-0.74371 -0.4091,-0.98398 l -0.19343,-0.43687 -0.3159,0.61924 c -0.33613,0.65886 -0.72548,0.80861 -0.85131,0.32744 -0.109,-0.4168 -0.22177,-0.36467 -0.55321,0.25572 -0.40746,0.76271 -0.67193,0.69634 -1.0137,-0.25439 l -0.28798,-0.80113 -0.20773,0.5458 c -0.24852,0.65296 -0.62725,0.71624 -0.88613,0.14805 l -0.18123,-0.39776 -0.29849,0.68956 c -0.38021,0.87835 -0.72473,0.91067 -1.0497,0.0985 -0.26177,-0.65422 -0.45293,-0.65129 -0.597996,0.009 -0.122731,0.55882 -0.542035,0.57704 -0.800835,0.0348 l -0.191491,-0.40121 -0.216471,0.54712 c -0.272548,0.68885 -0.538495,0.69274 -0.939126,0.0137 -0.339769,-0.57587 -0.412209,-0.52603 -0.61616,0.42397 -0.104059,0.48471 -0.4199,0.51806 -0.728852,0.077 -0.303823,-0.43376 -0.300039,-0.36269 0.146593,2.75177 0.255937,1.78469 0.442334,2.65888 0.591444,2.77374 0.184381,0.14203 2.104447,0.47609 3.995414,0.69513 1.07788,0.12486 6.11977,-0.0577 7.45839,-0.27006 z"
         id="path3453"
         inkscape:connector-curvature="0"
         sodipodi:nodetypes="ccsccsscscsscccsscscsscsccccccccscccssccsssscssscccccscsssccssssssscsscssssssssscscsscssscccsccccccccccccsccsscsccccsscccccscscccscccccccccccccccccccsccscsccccccsccsscccsccssscsscscscccsccscccscccccccccscccscscscsccccccccccccccccccccscccsscccccscccscccsccscccssccccccccccsccccccccsccccccccssccccsccccccccccccccsssscscccssccccccccccccccccccccccccscccccscccccccscscsccscscsssscccsscccsscscssssccsccccsscscssccscsscssccsccscsscssssccscsscccssssccsssscsssscscccscscsssscsscsssccscscssscc" />
    </g>
  </g>
</svg>
