<?xml version="1.0" encoding="UTF-8" standalone="no"?>
<!-- Created with Inkscape (http://www.inkscape.org/) -->

<svg
   xmlns:dc="http://purl.org/dc/elements/1.1/"
   xmlns:cc="http://creativecommons.org/ns#"
   xmlns:rdf="http://www.w3.org/1999/02/22-rdf-syntax-ns#"
   xmlns:svg="http://www.w3.org/2000/svg"
   xmlns="http://www.w3.org/2000/svg"
   xmlns:xlink="http://www.w3.org/1999/xlink"
   xmlns:sodipodi="http://sodipodi.sourceforge.net/DTD/sodipodi-0.dtd"
   xmlns:inkscape="http://www.inkscape.org/namespaces/inkscape"
   width="300"
   height="300"
   viewBox="0 0 79.374998 79.375002"
   version="1.1"
   id="svg8"
   inkscape:version="0.92.3 (2405546, 2018-03-11)"
   sodipodi:docname="logo.svg">
  <defs
     id="defs2" />
  <sodipodi:namedview
     id="base"
     pagecolor="#ffffff"
     bordercolor="#666666"
     borderopacity="1.0"
     inkscape:pageopacity="0.0"
     inkscape:pageshadow="2"
     inkscape:zoom="1.0833951"
     inkscape:cx="155.12156"
     inkscape:cy="27.012982"
     inkscape:document-units="mm"
     inkscape:current-layer="layer1"
     showgrid="false"
     units="px"
     inkscape:snap-global="true"
     inkscape:window-width="1280"
     inkscape:window-height="998"
     inkscape:window-x="0"
     inkscape:window-y="0"
     inkscape:window-maximized="1"
     showguides="true"
     inkscape:guide-bbox="true" />
  <metadata
     id="metadata5">
    <rdf:RDF>
      <cc:Work
         rdf:about="">
        <dc:format>image/svg+xml</dc:format>
        <dc:type
           rdf:resource="http://purl.org/dc/dcmitype/StillImage" />
        <dc:title />
      </cc:Work>
    </rdf:RDF>
  </metadata>
  <g
     inkscape:label="Camada 1"
     inkscape:groupmode="layer"
     id="layer1"
     transform="translate(0,-217.62498)">
    <g
       aria-label="Buraco"
       style="font-style:normal;font-variant:normal;font-weight:bold;font-stretch:normal;font-size:22.57777786px;line-height:125%;font-family:Dyuthi;-inkscape-font-specification:'Dyuthi Bold';letter-spacing:0px;word-spacing:0px;fill:#000000;fill-opacity:1;stroke:none;stroke-width:0.26458332px;stroke-linecap:butt;stroke-linejoin:miter;stroke-opacity:1"
       id="text12"
       transform="translate(-93.247887,-9.2845006)">
      <path
         d="m 15.204703,238.93304 q -0.56189,0.1979 -0.787513,0.28688 -0.174345,0.0687 -0.331646,4.3e-4 -0.177813,-0.0602 -0.234437,-0.20381 l -1.261898,-3.19974 q -0.06876,-0.17434 0.02008,-0.33974 0.08883,-0.16539 0.252922,-0.2301 l 0.646101,-0.2548 q 1.23067,-0.48535 2.108465,-0.39306 0.971972,0.0907 1.473496,1.3624 0.440855,1.11786 -0.178954,1.86002 -0.578498,0.66662 -1.706612,1.11152 z m -4.585187,-8.11071 q -0.141559,-0.35894 0.229808,-0.5291 0.365157,-0.15586 0.85338,-0.36026 1.999839,-0.78868 2.736523,0.9591 0.388564,0.92517 -0.06687,1.54325 -0.459475,0.60783 -1.58759,1.05273 l -0.543545,0.21436 q -0.198901,0.0666 -0.352158,0.009 -0.157301,-0.0683 -0.213925,-0.2119 z m 6.158003,1.67176 q -0.05258,-0.13332 0.03596,-0.23934 1.448485,-1.4956 0.813492,-3.10573 -0.695662,-1.76396 -2.633685,-1.9003 -1.534588,-0.16509 -4.33624,0.90426 -1.2900366,0.48506 -1.3925924,0.52551 -0.9823694,0.36372 -1.2838258,0.47075 -0.5373349,0.20006 -0.79791,0.7413 -0.2441085,0.5229 -0.025703,1.0767 l 4.0405002,10.24532 q 0.230539,0.58457 0.782322,0.78173 0.615194,0.20771 1.140395,-0.0231 1.803393,-0.80602 1.920249,-0.84026 3.95461,-1.57145 4.948959,-3.13681 1.008938,-1.61852 0.371778,-3.20409 -0.8898,-2.25622 -3.33309,-2.05109 -0.153545,10e-4 -0.250614,-0.24484 z"
         style="font-style:normal;font-variant:normal;font-weight:bold;font-stretch:normal;font-size:22.57777786px;font-family:Dyuthi;-inkscape-font-specification:'Dyuthi Bold';stroke-width:0.26458332px"
         id="path40"
         inkscape:connector-curvature="0" />
      <path
         d="m 21.901886,233.64034 q 0.421635,2.08549 1.861962,3.31269 1.672086,1.42778 3.834349,0.49574 0.911577,-0.38675 2.092002,-1.44646 v 0 q 0.0591,0.34797 0.453182,0.62821 0.339932,0.23495 0.728937,0.15631 l 1.145402,-0.23157 q 0.432227,-0.0874 0.643384,-0.43376 0.221962,-0.34855 0.141131,-0.74836 l -1.529245,-7.56398 q -0.128893,-0.63753 -0.648506,-0.98237 -0.350738,-0.23277 -1.128747,-0.0755 l -0.03242,0.007 q -0.780194,0.14649 -1.032388,0.51241 -0.366454,0.52398 -0.23756,1.16151 l 0.904439,4.47355 0.0022,0.0108 q 0.01311,0.0648 0.01564,0.24428 -6.57e-4,0.71996 -0.777491,1.43939 -0.770397,0.69562 -2.018594,0.36312 -1.042655,-0.2616 -1.337581,-1.72036 l -0.836715,-4.13858 q -0.100493,-0.49706 -0.620105,-0.8419 -0.361545,-0.23058 -1.128748,-0.0755 l -0.03242,0.007 q -0.769388,0.1443 -1.010777,0.50803 -0.342657,0.53042 -0.244348,1.01668 z"
         style="font-style:normal;font-variant:normal;font-weight:bold;font-stretch:normal;font-size:22.57777786px;font-family:Dyuthi;-inkscape-font-specification:'Dyuthi Bold';stroke-width:0.26458332px"
         id="path42"
         inkscape:connector-curvature="0" />
      <path
         d="m 40.0079,225.90566 q -1.684339,0.0896 -2.298841,0.57489 -0.318553,0.23774 -0.621298,0.77271 -0.809485,-1.10509 -1.613123,-1.06235 l -0.05504,0.003 q -0.627499,0.0334 -1.087294,0.5215 -0.416931,0.46377 -0.382387,1.11329 l 0.371777,6.99055 q 0.03454,0.64952 0.498312,1.06645 0.464354,0.42794 1.11387,0.3934 l 0.03303,-0.002 q 0.649517,-0.0345 1.065862,-0.50932 0.437192,-0.49797 0.404405,-1.11446 l -0.226579,-4.26038 q 0,0 0.02202,-0.001 0,0 -0.0012,-0.022 -0.0059,-0.11009 0.0091,-0.24336 0.101075,-0.59049 0.800135,-1.14654 0.688636,-0.54446 1.710223,-0.4332 0.610165,0.0559 0.71218,-0.9321 l 0.165726,-1.03552 q 0.04099,-0.26714 -0.147443,-0.48896 -0.165246,-0.20097 -0.473491,-0.18457 z"
         style="font-style:normal;font-variant:normal;font-weight:bold;font-stretch:normal;font-size:22.57777786px;font-family:Dyuthi;-inkscape-font-specification:'Dyuthi Bold';stroke-width:0.26458332px"
         id="path44"
         inkscape:connector-curvature="0" />
      <path
         d="m 45.773115,231.02122 q 0.123015,-1.33933 0.441948,-1.91892 0.354891,-0.60951 0.858094,-0.7847 1.043373,-0.39128 2.018066,0.0857 0.84699,0.42098 0.988129,1.05391 l -0.340813,3.71059 q -0.111925,1.21857 -1.188118,1.48506 -0.531096,0.11728 -1.030038,0.005 -0.858308,-0.0567 -1.388496,-0.91355 -0.530188,-0.85686 -0.425322,-1.99859 z m -1.950674,3.64023 q 1.269072,1.61111 3.267085,1.79462 0.570861,0.0524 1.711248,-0.55135 0.279607,-0.15145 0.571983,-0.0803 0.304361,0.0612 0.50174,0.32285 0.464546,0.60728 0.749976,0.63349 l 1.317372,0.121 q 0.263474,0.0242 0.47923,-0.15525 0.201752,-0.14753 0.226961,-0.42199 l 0.736077,-8.01401 q 0.04437,-0.48303 -0.26268,-0.87657 -0.322058,-0.35063 -0.794116,-0.39399 l -0.845313,-0.0776 q -0.483037,-0.0444 -0.830643,0.24476 -0.395552,0.329 -0.439918,0.81204 v 0 q -0.500606,-1.54053 -2.191233,-1.69581 -1.998013,-0.18352 -3.539333,1.16946 -1.54132,1.35298 -1.734919,3.46077 -0.19259,2.09682 1.076483,3.70793 z"
         style="font-style:normal;font-variant:normal;font-weight:bold;font-stretch:normal;font-size:22.57777786px;font-family:Dyuthi;-inkscape-font-specification:'Dyuthi Bold';stroke-width:0.26458332px"
         id="path46"
         inkscape:connector-curvature="0" />
      <path
         d="m 61.923161,238.0985 q 0.125619,-0.50269 -0.181905,-0.90907 -0.30753,-0.45184 -0.818228,-0.49992 -0.500002,-0.0454 -0.909105,-0.18173 -0.994673,-0.24857 -1.537545,-1.21375 -0.542873,-0.96519 -0.26758,-2.06681 l 0.0294,-0.11765 q 0.179074,-0.71659 0.657633,-1.22199 0.507968,-0.53213 1.117584,-0.60705 1.114955,-0.14182 2.125691,0.3153 0.473284,0.24326 0.989305,0.0427 0.462544,-0.21395 0.598855,-0.75941 l 0.01871,-0.0749 q 0.0882,-0.35295 -0.02681,-0.71123 -0.165808,-0.33688 -0.489356,-0.54273 -0.689873,-0.37693 -1.465292,-0.59344 -2.224645,-0.55593 -4.146996,0.49773 -1.965132,1.04297 -2.478299,3.09649 -0.50515,2.02143 0.735667,3.87692 1.200709,1.8341 3.425353,2.39003 0.780765,0.19511 1.56953,0.17632 0.371658,0.0133 0.684467,-0.23804 0.267354,-0.25136 0.358227,-0.615 z"
         style="font-style:normal;font-variant:normal;font-weight:bold;font-stretch:normal;font-size:22.57777786px;font-family:Dyuthi;-inkscape-font-specification:'Dyuthi Bold';stroke-width:0.26458332px"
         id="path48"
         inkscape:connector-curvature="0" />
      <path
         d="m 68.245291,240.0815 q -0.676698,-0.29627 -1.041669,-1.33449 -0.369242,-1.02805 0.581392,-3.31915 0.427021,-1.01637 1.446958,-1.5086 0.848354,-0.39691 1.635228,-0.0783 0.900299,0.39021 1.230933,1.28247 0.28084,0.81154 -0.217152,2.02529 -1.022204,2.40453 -1.811198,2.80246 -0.996963,0.46601 -1.824492,0.13029 z m 6.209853,-1.06201 q 0.835338,-2.01669 8.8e-5,-4.0417 -0.820817,-2.03091 -2.863719,-2.88922 -0.142292,-0.0598 -0.27869,-0.10514 -1.754048,-0.74891 -3.770524,0.066 -2.006313,0.81919 -2.870519,2.84766 -0.849772,2.02257 -0.0011,4.10105 0.858825,2.08276 2.844415,2.82133 0.127858,0.0657 0.27442,0.11529 1.723557,0.7361 3.764631,-0.0804 2.045344,-0.82671 2.901009,-2.83485 z"
         style="font-style:normal;font-variant:normal;font-weight:bold;font-stretch:normal;font-size:22.57777786px;font-family:Dyuthi;-inkscape-font-specification:'Dyuthi Bold';stroke-width:0.26458332px"
         id="path50"
         inkscape:connector-curvature="0" />
    </g>
    <g
       id="g114"
       transform="translate(-5.9485177,-24.745834)">
      <rect
         y="270.47781"
         x="-68.335251"
         height="13.229167"
         width="13.229167"
         id="rect93"
         style="opacity:1;fill:#ffff00;fill-opacity:1;fill-rule:nonzero;stroke:none;stroke-width:0.26458332;stroke-linecap:round;stroke-linejoin:round;stroke-miterlimit:4;stroke-dasharray:none;stroke-opacity:1" />
      <rect
         style="opacity:1;fill:#ffff00;fill-opacity:1;fill-rule:nonzero;stroke:none;stroke-width:0.26458332;stroke-linecap:round;stroke-linejoin:round;stroke-miterlimit:4;stroke-dasharray:none;stroke-opacity:1"
         id="rect95"
         width="13.229167"
         height="13.229167"
         x="-55.106083"
         y="270.47781" />
      <rect
         y="283.70697"
         x="-68.335251"
         height="13.229167"
         width="13.229167"
         id="rect97"
         style="opacity:1;fill:#ffff00;fill-opacity:1;fill-rule:nonzero;stroke:none;stroke-width:0.26458332;stroke-linecap:round;stroke-linejoin:round;stroke-miterlimit:4;stroke-dasharray:none;stroke-opacity:1" />
      <rect
         style="opacity:1;fill:#ffff00;fill-opacity:1;fill-rule:nonzero;stroke:none;stroke-width:0.26458332;stroke-linecap:round;stroke-linejoin:round;stroke-miterlimit:4;stroke-dasharray:none;stroke-opacity:1"
         id="rect99"
         width="13.229167"
         height="13.229167"
         x="-55.106083"
         y="283.70697" />
      <g
         style="fill:#ff0000"
         inkscape:label="Layer 1"
         id="layer1-1"
         transform="matrix(0.26458333,0,0,0.26458333,-68.335249,5.269469)">
        <path
           style="fill:#ff0000;fill-opacity:1;stroke:none"
           d="m 23.743061,1048.4215 c -1.744244,-2.9517 -7.496445,-10.8802 -11.740065,-16.1816 -2.1330695,-2.6649 -3.8783076,-4.9443 -3.8783076,-5.0657 0,-0.121 0.7863081,-1.1613 1.7473501,-2.311 4.6520775,-5.5649 10.9191645,-14.0811 13.4764375,-18.3128 0.78412,-1.2975 1.522253,-2.2469 1.640293,-2.1096 0.118034,0.1377 1.231198,1.8091 2.473685,3.7154 2.71263,4.1616 8.616194,12.0925 11.977028,16.0895 l 2.43583,2.8972 -2.43583,2.8973 c -4.417909,5.2543 -10.713384,13.9321 -14.004176,19.3032 l -0.584094,0.9535 z"
           id="path5878"
           inkscape:connector-curvature="0" />
      </g>
      <g
         style="fill:#ff0000;stroke:none"
         transform="matrix(8.7623649e-4,0,0,-8.7623649e-4,-54.100193,295.77065)"
         id="g3374">
        <path
           style="fill:#ff0000"
           inkscape:connector-curvature="0"
           d="m 3147,12010 c -691,-67 -1300,-343 -1810,-820 -147,-137 -335,-370 -462,-570 -79,-124 -209,-387 -258,-520 -86,-230 -141,-458 -173,-705 -19,-149 -22,-477 -4,-620 5,-49 13,-112 16,-140 8,-73 52,-263 90,-393 183,-624 544,-1222 1197,-1983 293,-343 831,-890 1612,-1639 518,-498 1244,-1219 1444,-1435 783,-848 1232,-1521 1463,-2195 43,-127 106,-378 120,-480 12,-87 28,-121 28,-59 0,16 11,83 24,147 143,685 495,1330 1165,2132 309,370 922,998 1721,1766 217,208 534,515 705,680 1202,1167 1853,2025 2159,2847 64,170 144,475 160,607 45,367 39,670 -18,970 -97,501 -318,964 -649,1360 -355,425 -867,765 -1392,925 -708,215 -1441,169 -2113,-133 -794,-356 -1408,-1072 -1638,-1911 -61,-221 -104,-500 -104,-675 0,-103 -9,-146 -30,-146 -14,0 -18,13 -23,68 -4,37 -7,92 -7,122 0,85 -28,301 -56,440 -152,740 -600,1413 -1224,1842 -385,265 -806,429 -1280,498 -163,24 -513,35 -663,20 z"
           id="path3376" />
      </g>
      <g
         inkscape:label="Livello 1"
         id="layer1-9"
         transform="matrix(0.26458333,0,0,0.26458333,-144.57662,136.05293)">
        <path
           style="fill:#000000;fill-opacity:1;stroke:none;stroke-width:2;stroke-linecap:square;stroke-linejoin:round;stroke-miterlimit:3.9994173;stroke-dasharray:none;stroke-opacity:1"
           d="m 313.15636,562.81455 c -5.33077,0 -9.66014,4.32937 -9.66014,9.66014 0,3.79707 2.19261,7.08313 5.3832,8.65841 0.96016,0.47406 -0.0877,1.70125 -0.79268,0.9059 -1.77058,-1.9974 -4.35278,-3.25779 -7.22986,-3.25779 -5.33077,0 -9.66014,4.32937 -9.66014,9.66013 0,5.33078 4.32941,9.65142 9.66014,9.65142 5.28993,0 9.60441,-4.25499 9.66014,-9.52947 0.009,-0.93569 1.44598,-1.0326 1.44598,0.22647 0,1.98274 -1.90616,12.51297 -2.92679,14.52069 1.11401,-0.28091 2.97065,-0.51392 4.12015,-0.51393 1.1495,10e-6 3.00613,0.23302 4.12014,0.51393 -1.02062,-2.00772 -2.92679,-12.53795 -2.92679,-14.52069 0,-1.25907 1.43609,-1.16216 1.44599,-0.22647 0.0557,5.27448 4.37023,9.52947 9.66012,9.52947 5.33077,0 9.66013,-4.32064 9.66014,-9.65142 0,-5.33076 -4.32937,-9.66013 -9.66014,-9.66013 -2.87705,0 -5.45928,1.26039 -7.22986,3.25779 -0.70502,0.79534 -1.75283,-0.43184 -0.79266,-0.9059 3.19059,-1.57528 5.38319,-4.86134 5.38319,-8.65841 0,-5.33077 -4.32937,-9.66014 -9.66013,-9.66014 z"
           id="path3211"
           inkscape:connector-curvature="0" />
      </g>
      <g
         inkscape:label="Layer 1"
         id="layer1-4"
         transform="matrix(0.26458333,0,0,0.26458333,-55.106069,5.26983)">
        <path
           style="fill:#000000;fill-rule:evenodd;stroke:#000000;stroke-width:0.10355574pt"
           inkscape:connector-curvature="0"
           id="path4"
           d="m 12.540605,1020.4207 c -14.7727166,15.0926 -0.404848,26.085 11.275246,18.8791 0.06364,3.7172 -2.85092,7.1876 -4.643674,10.5059 h 12.611002 c -1.846306,-3.225 -4.929282,-6.7778 -5.04198,-10.5059 11.924974,6.8503 24.607077,-5.0958 11.375085,-18.8791 -6.899635,-7.5698 -11.212467,-13.4597 -12.83791,-15.4619 -1.482644,1.9522 -5.43227,7.6924 -12.738072,15.4619 z" />
      </g>
    </g>
    <g
       id="g123"
       transform="matrix(0.45232268,-0.53695662,0.53695662,0.45232268,-172.97055,143.61015)">
      <rect
         transform="rotate(-25.900034)"
         style="opacity:1;fill:#ffffff;fill-opacity:1;fill-rule:nonzero;stroke:#cccccc;stroke-width:0.0571999;stroke-linecap:round;stroke-linejoin:round;stroke-miterlimit:4;stroke-dasharray:none;stroke-opacity:1"
         id="rect3349"
         width="9.5865402"
         height="13.195591"
         x="-101.39302"
         y="235.30743"
         rx="0.94389278"
         ry="0.94389278" />
      <rect
         transform="rotate(-27.951059)"
         ry="0.61716068"
         rx="0.61716068"
         y="234.04871"
         x="-108.13822"
         height="8.6278868"
         width="6.2681231"
         id="rect3363"
         style="opacity:1;fill:none;fill-opacity:1;fill-rule:nonzero;stroke:#cccccc;stroke-width:0.05719991;stroke-linecap:round;stroke-linejoin:round;stroke-miterlimit:4;stroke-dasharray:none;stroke-opacity:1" />
      <rect
         ry="0.94389278"
         rx="0.94389278"
         y="254.78383"
         x="17.132374"
         height="13.195591"
         width="9.5865412"
         id="rect3347"
         style="opacity:1;fill:#ffffff;fill-opacity:1;fill-rule:nonzero;stroke:#cccccc;stroke-width:0.0571999;stroke-linecap:round;stroke-linejoin:round;stroke-miterlimit:4;stroke-dasharray:none;stroke-opacity:1" />
      <rect
         style="opacity:1;fill:none;fill-opacity:1;fill-rule:nonzero;stroke:#cccccc;stroke-width:0.0571999;stroke-linecap:round;stroke-linejoin:round;stroke-miterlimit:4;stroke-dasharray:none;stroke-opacity:1"
         id="rect3359"
         width="6.2681231"
         height="8.6278868"
         x="18.767727"
         y="257.09589"
         rx="0.61716068"
         ry="0.61716068" />
    </g>
    <path
       style="opacity:1;fill:#1fab90;fill-opacity:1;fill-rule:nonzero;stroke:none;stroke-width:0.42954254;stroke-linecap:round;stroke-linejoin:round;stroke-miterlimit:4;stroke-dasharray:none;stroke-opacity:1"
       d="M 40.53009,290.76323 10.595899,260.82904 40.530083,230.89485 70.464275,260.82904 Z"
       id="rect125"
       inkscape:connector-curvature="0" />
    <text
       xml:space="preserve"
       style="font-style:normal;font-variant:normal;font-weight:normal;font-stretch:normal;font-size:22.57777786px;line-height:125%;font-family:Dyuthi;-inkscape-font-specification:Dyuthi;letter-spacing:0px;word-spacing:0px;fill:#000000;fill-opacity:1;stroke:none;stroke-width:0.26458332px;stroke-linecap:butt;stroke-linejoin:miter;stroke-opacity:1;"
       id="text129"><textPath
         xlink:href="#rect125"
         id="textPath50"
         startOffset="52"><tspan
   style="font-style:normal;font-variant:normal;font-weight:normal;font-stretch:normal;font-size:22.57777786px;font-family:Dyuthi;-inkscape-font-specification:Dyuthi;stroke-width:0.26458332px;fill:#000000;"
   id="tspan127">Buraco</tspan></textPath></text>
    <g
       id="g100"
       transform="translate(52.237771,-73.937932)">
      <rect
         transform="rotate(45)"
         y="223.82791"
         x="207.27074"
         height="21.166666"
         width="21.166666"
         id="rect35"
         style="opacity:1;fill:#1fab90;fill-opacity:1;fill-rule:nonzero;stroke:none;stroke-width:0.26458332;stroke-linecap:round;stroke-linejoin:round;stroke-miterlimit:4;stroke-dasharray:none;stroke-opacity:1" />
      <rect
         transform="rotate(45)"
         style="opacity:1;fill:#1fab90;fill-opacity:1;fill-rule:nonzero;stroke:none;stroke-width:0.26458332;stroke-linecap:round;stroke-linejoin:round;stroke-miterlimit:4;stroke-dasharray:none;stroke-opacity:1"
         id="rect37"
         width="21.166666"
         height="21.166666"
         x="228.43741"
         y="223.82791" />
      <rect
         transform="rotate(45)"
         y="244.99457"
         x="207.27074"
         height="21.166666"
         width="21.166666"
         id="rect39"
         style="opacity:1;fill:#1fab90;fill-opacity:1;fill-rule:nonzero;stroke:none;stroke-width:0.26458332;stroke-linecap:round;stroke-linejoin:round;stroke-miterlimit:4;stroke-dasharray:none;stroke-opacity:1" />
      <rect
         transform="rotate(45)"
         style="opacity:1;fill:#1fab90;fill-opacity:1;fill-rule:nonzero;stroke:none;stroke-width:0.26458332;stroke-linecap:round;stroke-linejoin:round;stroke-miterlimit:4;stroke-dasharray:none;stroke-opacity:1"
         id="rect41"
         width="21.166666"
         height="21.166666"
         x="228.43741"
         y="244.99457" />
      <g
         transform="matrix(0.26458333,0,0,0.26458333,-18.322274,47.976946)"
         id="g70"
         inkscape:label="Layer 1"
         style="fill:#ff0000">
        <path
           inkscape:connector-curvature="0"
           id="path68"
           d="m 23.743061,1048.4215 c -1.744244,-2.9517 -7.496445,-10.8802 -11.740065,-16.1816 -2.1330695,-2.6649 -3.8783076,-4.9443 -3.8783076,-5.0657 0,-0.121 0.7863081,-1.1613 1.7473501,-2.311 4.6520775,-5.5649 10.9191645,-14.0811 13.4764375,-18.3128 0.78412,-1.2975 1.522253,-2.2469 1.640293,-2.1096 0.118034,0.1377 1.231198,1.8091 2.473685,3.7154 2.71263,4.1616 8.616194,12.0925 11.977028,16.0895 l 2.43583,2.8972 -2.43583,2.8973 c -4.417909,5.2543 -10.713384,13.9321 -14.004176,19.3032 l -0.584094,0.9535 z"
           style="fill:#ff0000;fill-opacity:1;stroke:none" />
      </g>
      <g
         transform="matrix(0.26458333,0,0,0.26458333,-3.3551631,62.944403)"
         id="g78"
         inkscape:label="Layer 1">
        <path
           d="m 12.540605,1020.4207 c -14.7727166,15.0926 -0.404848,26.085 11.275246,18.8791 0.06364,3.7172 -2.85092,7.1876 -4.643674,10.5059 h 12.611002 c -1.846306,-3.225 -4.929282,-6.7778 -5.04198,-10.5059 11.924974,6.8503 24.607077,-5.0958 11.375085,-18.8791 -6.899635,-7.5698 -11.212467,-13.4597 -12.83791,-15.4619 -1.482644,1.9522 -5.43227,7.6924 -12.738072,15.4619 z"
           id="path76"
           inkscape:connector-curvature="0"
           style="fill:#000000;fill-rule:evenodd;stroke:#000000;stroke-width:0.10355574pt" />
      </g>
      <g
         id="g82"
         transform="matrix(8.7623649e-4,0,0,-8.7623649e-4,-17.316373,355.18316)"
         style="fill:#ff0000;stroke:none">
        <path
           id="path80"
           d="m 3147,12010 c -691,-67 -1300,-343 -1810,-820 -147,-137 -335,-370 -462,-570 -79,-124 -209,-387 -258,-520 -86,-230 -141,-458 -173,-705 -19,-149 -22,-477 -4,-620 5,-49 13,-112 16,-140 8,-73 52,-263 90,-393 183,-624 544,-1222 1197,-1983 293,-343 831,-890 1612,-1639 518,-498 1244,-1219 1444,-1435 783,-848 1232,-1521 1463,-2195 43,-127 106,-378 120,-480 12,-87 28,-121 28,-59 0,16 11,83 24,147 143,685 495,1330 1165,2132 309,370 922,998 1721,1766 217,208 534,515 705,680 1202,1167 1853,2025 2159,2847 64,170 144,475 160,607 45,367 39,670 -18,970 -97,501 -318,964 -649,1360 -355,425 -867,765 -1392,925 -708,215 -1441,169 -2113,-133 -794,-356 -1408,-1072 -1638,-1911 -61,-221 -104,-500 -104,-675 0,-103 -9,-146 -30,-146 -14,0 -18,13 -23,68 -4,37 -7,92 -7,122 0,85 -28,301 -56,440 -152,740 -600,1413 -1224,1842 -385,265 -806,429 -1280,498 -163,24 -513,35 -663,20 z"
           inkscape:connector-curvature="0"
           style="fill:#ff0000" />
      </g>
      <g
         transform="matrix(0.26458333,0,0,0.26458333,-109.53073,180.49834)"
         id="g86"
         inkscape:label="Livello 1">
        <path
           inkscape:connector-curvature="0"
           id="path84"
           d="m 313.15636,562.81455 c -5.33077,0 -9.66014,4.32937 -9.66014,9.66014 0,3.79707 2.19261,7.08313 5.3832,8.65841 0.96016,0.47406 -0.0877,1.70125 -0.79268,0.9059 -1.77058,-1.9974 -4.35278,-3.25779 -7.22986,-3.25779 -5.33077,0 -9.66014,4.32937 -9.66014,9.66013 0,5.33078 4.32941,9.65142 9.66014,9.65142 5.28993,0 9.60441,-4.25499 9.66014,-9.52947 0.009,-0.93569 1.44598,-1.0326 1.44598,0.22647 0,1.98274 -1.90616,12.51297 -2.92679,14.52069 1.11401,-0.28091 2.97065,-0.51392 4.12015,-0.51393 1.1495,10e-6 3.00613,0.23302 4.12014,0.51393 -1.02062,-2.00772 -2.92679,-12.53795 -2.92679,-14.52069 0,-1.25907 1.43609,-1.16216 1.44599,-0.22647 0.0557,5.27448 4.37023,9.52947 9.66012,9.52947 5.33077,0 9.66013,-4.32064 9.66014,-9.65142 0,-5.33076 -4.32937,-9.66013 -9.66014,-9.66013 -2.87705,0 -5.45928,1.26039 -7.22986,3.25779 -0.70502,0.79534 -1.75283,-0.43184 -0.79266,-0.9059 3.19059,-1.57528 5.38319,-4.86134 5.38319,-8.65841 0,-5.33077 -4.32937,-9.66014 -9.66013,-9.66014 z"
           style="fill:#000000;fill-opacity:1;stroke:none;stroke-width:2;stroke-linecap:square;stroke-linejoin:round;stroke-miterlimit:3.9994173;stroke-dasharray:none;stroke-opacity:1" />
      </g>
    </g>
  </g>
</svg>
