<?xml version="1.0" encoding="UTF-8" standalone="no"?>
<!-- Created with Inkscape (http://www.inkscape.org/) -->

<svg
   xmlns:dc="http://purl.org/dc/elements/1.1/"
   xmlns:cc="http://creativecommons.org/ns#"
   xmlns:rdf="http://www.w3.org/1999/02/22-rdf-syntax-ns#"
   xmlns:svg="http://www.w3.org/2000/svg"
   xmlns="http://www.w3.org/2000/svg"
   xmlns:sodipodi="http://sodipodi.sourceforge.net/DTD/sodipodi-0.dtd"
   xmlns:inkscape="http://www.inkscape.org/namespaces/inkscape"
   width="90"
   height="120"
   viewBox="0 0 90.000001 120"
   id="svg2"
   version="1.1"
   inkscape:version="0.91 r13725"
   sodipodi:docname="queen.svg">
  <defs
     id="defs4" />
  <sodipodi:namedview
     id="base"
     pagecolor="#ffffff"
     bordercolor="#666666"
     borderopacity="1.0"
     inkscape:pageopacity="0.0"
     inkscape:pageshadow="2"
     inkscape:zoom="2.1826624"
     inkscape:cx="106.42628"
     inkscape:cy="34.258274"
     inkscape:document-units="px"
     inkscape:current-layer="g3358"
     showgrid="false"
     units="px"
     inkscape:window-width="1280"
     inkscape:window-height="1000"
     inkscape:window-x="0"
     inkscape:window-y="24"
     inkscape:window-maximized="1" />
  <metadata
     id="metadata7">
    <rdf:RDF>
      <cc:Work
         rdf:about="">
        <dc:format>image/svg+xml</dc:format>
        <dc:type
           rdf:resource="http://purl.org/dc/dcmitype/StillImage" />
        <dc:title></dc:title>
      </cc:Work>
    </rdf:RDF>
  </metadata>
  <g
     inkscape:label="Camada 1"
     inkscape:groupmode="layer"
     id="layer1"
     transform="translate(0,-932.36216)">
    <g
       id="g3358"
       transform="translate(20.158868,-6.4141851)">
      <path
         style="fill:#000000;fill-opacity:1"
         d="m 20.513173,958.84317 c -0.131049,0 -0.217355,0.5615 -0.32298,2.09793 -0.04572,0.66511 -0.143484,1.3663 -0.216525,1.55841 l -0.132523,0.34977 -0.352676,-0.32804 c -0.194116,-0.18021 -0.630127,-0.68532 -0.968213,-1.12246 -0.338086,-0.43715 -0.645167,-0.76335 -0.682893,-0.72562 -0.128179,0.12819 0.543193,3.1449 1.005152,4.51664 0.462175,1.3724 0.575072,2.34631 0.325874,2.81196 -0.0738,0.13787 -0.529946,0.53291 -1.013117,0.87768 -1.49319,1.06553 -2.712327,2.63096 -3.441257,4.41963 l -0.322979,0.79366 0.543849,0.0782 c 0.299006,0.0427 0.619327,0.15413 0.711867,0.24697 0.119263,0.11965 0.167915,0.81373 0.168005,2.38399 1.09e-4,1.96889 0.03556,2.31355 0.317187,3.10376 0.677779,1.90164 2.311655,4.0542 3.888793,5.1235 l 0.649577,0.44104 -0.581504,0.17022 c -1.36305,0.3992 -2.462023,1.37108 -3.085694,2.72859 -0.272782,0.59386 -0.365886,1.04862 -0.409154,1.9995 -0.0474,1.042 -0.103418,1.2834 -0.366428,1.57284 -0.679506,0.74789 -0.798661,1.55251 -0.38598,2.61575 0.176024,0.45346 0.250605,1.21724 0.30777,3.15288 l 0.07604,2.55483 -1.738007,0.044 c -1.846659,0.046 -2.224308,0.1694 -1.937159,0.6292 0.105998,0.1701 0.10501,0.304 -0.003,0.4751 -0.111725,0.1771 -0.104716,0.3111 0.0275,0.5229 0.142328,0.2278 0.143778,0.3258 0.0072,0.4903 -0.136439,0.1643 -0.135477,0.261 0.0036,0.4837 0.124768,0.1997 0.132222,0.3204 0.02605,0.4265 -0.231933,0.2319 -0.173793,0.6174 0.116592,0.7728 0.1455,0.077 0.668388,0.1411 1.162293,0.1411 l 0.897968,0 0,0.9667 0,0.9669 -0.843656,0.8024 c -1.095002,1.0419 -1.117713,1.3503 -0.170905,2.3157 0.530439,0.5411 0.766764,0.6859 1.117394,0.6895 0.415989,0.01 0.991387,-0.3787 0.991387,-0.6582 6e-6,-0.062 0.156731,-0.1865 0.348332,-0.2738 0.430813,-0.1961 0.472155,-0.1965 0.472155,-0.01 0,0.335 0.99863,1.4837 1.724249,1.9835 l 0.769797,0.53 -1.622873,0.1696 c -1.71928,0.1796 -5.464794,0.8196 -5.771634,0.9862 -0.113499,0.061 0.221405,0.2438 0.88856,0.4824 2.656714,0.9503 4.320388,1.9663 4.993873,3.0495 0.307537,0.4946 0.317187,0.6062 0.317187,3.5876 0,3.5441 0.113246,4.1846 1.097847,6.2235 1.085623,2.2479 2.54304,3.4555 4.797621,3.9755 0.102725,0.024 0.02618,0.7483 -0.240421,2.2697 -0.32843,1.8741 -0.68498,5.038 -0.567751,5.038 0.01853,0 0.200023,-0.3393 0.403368,-0.7545 0.691513,-1.4123 0.990255,-1.3583 1.486715,0.2693 0.196167,0.6432 0.409792,1.1695 0.474334,1.1695 0.06454,0 0.250065,-0.4002 0.412776,-0.8892 0.162717,-0.489 0.370261,-0.8893 0.461296,-0.8893 0.09103,0 0.333834,0.3432 0.539506,0.7625 0.508192,1.0363 0.737327,0.9134 0.978356,-0.5264 0.04758,-0.2842 0.131313,-0.4892 0.186107,-0.4555 0.05481,0.033 0.309463,0.6511 0.566307,1.3715 l 6.02e-4,0 c 0.256847,0.7205 0.513373,1.3101 0.570645,1.3101 0.131049,0 0.218066,-0.5623 0.323704,-2.0986 0.04572,-0.6652 0.139854,-1.3585 0.209288,-1.5411 0.171145,-0.4501 0.410477,-0.285 1.341884,0.9255 0.402988,0.5236 0.76405,0.9218 0.801656,0.8842 0.127999,-0.128 -0.544312,-3.1468 -1.005873,-4.5175 -0.462175,-1.3723 -0.575072,-2.3461 -0.325874,-2.8118 0.07379,-0.1378 0.52994,-0.5322 1.013117,-0.877 1.49319,-1.0655 2.712334,-2.6318 3.441256,-4.4204 l 0.322974,-0.7936 -0.543121,-0.078 c -0.299006,-0.042 -0.619328,-0.1541 -0.711861,-0.247 -0.119274,-0.1197 -0.168733,-0.8135 -0.168733,-2.384 0,-2.0615 -0.02539,-2.2846 -0.366429,-3.2181 -0.201545,-0.5518 -0.570681,-1.3483 -0.820486,-1.77 -0.563674,-0.9513 -2.152958,-2.6578 -3.019065,-3.242 l -0.649583,-0.4381 0.58151,-0.1702 c 1.363043,-0.3994 2.462016,-1.3718 3.085687,-2.7294 0.272782,-0.5938 0.365881,-1.0486 0.40916,-1.9994 0.0474,-1.0422 0.104145,-1.2835 0.36715,-1.573 0.731486,-0.805 0.787231,-1.4409 0.268668,-3.0646 -0.311833,-0.9767 -0.344103,-1.2855 -0.328046,-3.16973 l 0.01811,-2.087 1.759011,-0.045 c 1.867901,-0.048 2.249214,-0.1702 1.959605,-0.6292 -0.10648,-0.1689 -0.106383,-0.30251 0.0012,-0.47516 0.112213,-0.17962 0.102557,-0.31591 -0.03839,-0.54169 -0.133925,-0.21442 -0.143124,-0.31646 -0.03261,-0.35337 0.204223,-0.0678 0.199036,-0.47733 -0.0087,-0.68506 -0.12765,-0.12764 -0.12765,-0.20111 0,-0.32875 0.246443,-0.24638 0.197502,-0.62834 -0.100655,-0.78785 -0.145506,-0.0777 -0.668389,-0.14195 -1.162293,-0.14195 l -0.897968,0 0,-0.96681 0,-0.966 0.843655,-0.80314 c 1.094996,-1.042 1.117706,-1.35041 0.170899,-2.31592 -0.530432,-0.54089 -0.766763,-0.68602 -1.117394,-0.68863 -0.415983,-0.008 -0.991386,0.37875 -0.991386,0.65831 0,0.0629 -0.156725,0.18568 -0.348327,0.27303 -0.430812,0.1962 -0.472161,0.19718 -0.472161,0.008 0,-0.33497 -0.999346,-1.48377 -1.724971,-1.98357 l -0.769068,-0.53003 1.622867,-0.16948 c 1.71928,-0.1797 5.464794,-0.8203 5.771633,-0.98708 0.113505,-0.0621 -0.221405,-0.24369 -0.888554,-0.48222 -2.656714,-0.95024 -4.320394,-1.96559 -4.993878,-3.04881 -0.307532,-0.49465 -0.317909,-0.6069 -0.317909,-3.58825 0,-3.54414 -0.112518,-4.18405 -1.097119,-6.22281 -1.085623,-2.24797 -2.543047,-3.45561 -4.797628,-3.9757 -0.102719,-0.0236 -0.02617,-0.74817 0.240427,-2.26955 0.36327,-2.07305 0.689258,-5.11104 0.531541,-4.95333 -0.03777,0.0377 -0.254343,0.41874 -0.481577,0.84657 -0.616391,1.16055 -0.86047,1.08507 -1.349129,-0.41858 -0.213901,-0.65821 -0.4398,-1.19704 -0.501849,-1.19704 -0.06205,0 -0.245716,0.40032 -0.408427,0.88927 -0.162718,0.48897 -0.370267,0.88855 -0.461297,0.88855 -0.09103,0 -0.333839,-0.34318 -0.539511,-0.76254 -0.508193,-1.03618 -0.737322,-0.91261 -0.97835,0.52719 -0.04758,0.28419 -0.131314,0.48863 -0.186115,0.45478 -0.05481,-0.0339 -0.309455,-0.65039 -0.5663,-1.37085 -0.256846,-0.72047 -0.5141,-1.31002 -0.571368,-1.31002 z m 3.546261,2.30794 c 0.07273,0.0207 0.25125,0.45531 0.443187,1.08987 0.21255,0.70269 0.414378,1.3051 0.448266,1.33899 0.03387,0.034 0.19121,-0.14123 0.349776,-0.38887 0.158561,-0.24763 0.289278,-0.40567 0.290391,-0.35122 0.006,0.25505 -1.09404,6.3095 -1.157955,6.37341 -0.117151,0.11716 -2.979382,0.15991 -3.339866,0.0499 -0.180946,-0.0551 -0.381596,-0.19084 -0.445366,-0.30198 -0.15057,-0.26237 -1.609944,-6.33935 -1.487443,-6.19382 0.05119,0.0608 0.303415,0.38711 0.560507,0.72561 0.257092,0.33852 0.609347,0.7693 0.782827,0.95736 0.17348,0.18806 0.443813,0.54763 0.601061,0.79876 0.214018,0.3418 0.315047,0.41078 0.401912,0.27374 0.06382,-0.10069 0.112741,-0.27532 0.108627,-0.38817 -0.0054,-0.14013 -0.03935,-0.12369 -0.108627,0.0529 -0.08734,0.22252 -0.172601,0.16159 -0.61337,-0.43885 l -0.511989,-0.69737 0.170906,-1.37303 c 0.09426,-0.75526 0.205371,-1.37268 0.246942,-1.37157 0.04157,8.2e-4 0.291425,0.56058 0.554709,1.24268 0.263288,0.68209 0.521211,1.26731 0.573544,1.3006 0.05235,0.0333 0.201214,-0.43329 0.330946,-1.037 0.12973,-0.60372 0.274893,-1.09785 0.322258,-1.09785 0.04734,0 0.16522,0.38377 0.262151,0.85308 0.09693,0.4693 0.208164,0.90474 0.246936,0.96748 0.03881,0.0627 0.249014,-0.39791 0.467091,-1.02397 0.218084,-0.62607 0.433117,-1.2305 0.477954,-1.34334 0.006,-0.0146 0.01426,-0.0203 0.02461,-0.0174 z m 1.328126,11.97849 c 0.03868,3.3e-4 0.06992,0.006 0.09051,0.0189 0.230633,0.14253 0.873087,1.64991 1.189816,2.79092 0.62929,2.26711 0.900417,5.60641 0.57209,7.04403 -0.149778,0.6558 -0.804167,1.27467 -1.910359,1.80535 -1.062972,0.50993 -2.860546,0.58632 -4.033625,0.17161 -2.643504,-0.93454 -4.511141,-3.73519 -4.762144,-7.14029 -0.03188,-0.43257 -0.0069,-0.78648 0.05576,-0.78648 0.0626,0 0.113699,0.12459 0.113699,0.27667 0,0.16545 0.144176,0.34189 0.358457,0.43954 0.315965,0.14397 0.387581,0.12567 0.614827,-0.15498 0.44293,-0.54698 0.204114,-1.79231 -0.343988,-1.79231 -0.226368,0 -0.581979,0.40061 -0.667679,0.75243 -0.03669,0.15047 -0.06944,0.027 -0.07315,-0.27373 -0.0036,-0.30093 0.09726,-0.93478 0.223769,-1.40927 l 0.229563,-0.8632 2.735916,-0.0391 c 2.794651,-0.0403 4.240393,-0.23756 5.137982,-0.70172 0.168721,-0.0873 0.352525,-0.13929 0.46854,-0.13831 z m -4.180635,2.96908 c -0.488405,0.0325 -0.911481,0.894 -0.482299,1.54902 0.1238,0.18896 0.342918,0.34329 0.48737,0.34329 0.586377,0 0.888295,-1.02167 0.475777,-1.61059 -0.148193,-0.21158 -0.318046,-0.29261 -0.480848,-0.28172 z m -1.899498,1.83581 c -0.09447,0.012 -0.25729,0.14192 -0.404084,0.37944 -0.395612,0.64011 -0.366356,1.09823 0.09124,1.43965 0.206869,0.15437 0.422264,0.28239 0.478676,0.28462 0.173029,0.007 0.113771,-0.22579 -0.102827,-0.40555 -0.233502,-0.19377 -0.27292,-0.98591 -0.06807,-1.36866 0.1257,-0.23487 0.09955,-0.34141 0.0048,-0.3295 z m 0.569201,3.79026 c -0.632695,0.015 -1.145874,0.0745 -1.240502,0.17164 -0.120556,0.12376 0.903684,0.98903 1.261497,1.06601 0.562741,0.12104 1.345886,-0.0571 2.247103,-0.51124 l 0.906662,-0.45773 -1.215883,-0.17236 c -0.573725,-0.0813 -1.326183,-0.11111 -1.958877,-0.0963 z m 4.637581,3.93446 c 0.775042,-0.0131 1.079738,0.0204 1.079738,0.10714 0,0.0866 -0.06087,0.15714 -0.134694,0.15714 -0.07382,0 -0.572973,0.4144 -1.109428,0.92039 -1.160355,1.09464 -2.909969,3.38522 -4.160361,5.44723 -0.496947,0.81957 -0.930684,1.51728 -0.963868,1.55046 -0.182029,0.18207 -0.02226,-2.38897 0.20711,-3.33544 0.499437,-2.06071 1.494086,-4.49316 1.903126,-4.65284 0.122615,-0.0482 1.131015,-0.12249 2.240575,-0.16589 0.369167,-0.0147 0.679458,-0.0236 0.937802,-0.0287 z m 3.025586,0.18321 c 0.110226,-0.008 0.312867,0 0.584404,0.0213 1.824453,0.1364 3.335631,1.15102 4.132836,2.77436 0.375061,0.76375 0.3802,0.80468 0.350504,3.0987 -0.01655,1.27882 -0.05432,2.9092 -0.08328,3.62307 l -0.05216,1.29842 -0.962425,0.3012 c -1.401481,0.4389 -3.043688,0.7311 -3.043688,0.5416 0,-0.2863 -0.418337,-4.66836 -0.487365,-5.10531 -0.04933,-0.312 -0.154999,-0.45255 -0.372222,-0.49464 l -0.303427,-0.0588 0.31067,-0.0188 0.310665,-0.018 -0.03693,-2.90028 -0.03694,-2.90029 -0.341812,-0.10648 c -0.09697,-0.0303 -0.07908,-0.0491 0.03116,-0.0556 z m 6.123581,4.45868 c 0.0376,0 0.173107,0.18541 0.30125,0.41063 0.12815,0.22522 0.328305,0.40916 0.444644,0.40916 0.173216,0 0.211453,0.19818 0.211453,1.09423 l 0,1.09421 -0.469982,0 -0.470713,0 -0.04272,-1.50485 c -0.02353,-0.82757 -0.01155,-1.50412 0.02606,-1.50338 z m -6.487838,3.00455 c 0.0067,0.0123 0.01414,0.0475 0.02172,0.10869 0.03038,0.24581 0.02978,0.61566 -0.0012,0.82119 -0.03122,0.20553 -0.05576,0.008 -0.05505,-0.44757 6.02e-4,-0.33839 0.01467,-0.51752 0.03471,-0.48231 z m 8.945672,0.28325 c 0.580938,0 0.717607,0.049 0.772685,0.19261 0.04716,0.1229 0.04229,0.26689 -0.01083,0.32 -0.155641,0.15577 -2.288156,0.1663 -2.793851,0.0139 -0.817221,-0.24647 -0.279128,-0.45935 1.289749,-0.51059 0.305949,-0.0106 0.548627,-0.0155 0.742273,-0.0155 z m -2.658429,0.12592 c 0.04812,-3.3e-4 0.05758,0.04 6.02e-4,0.13255 -0.04332,0.0703 0.05547,0.22121 0.219425,0.33604 l 0.298357,0.20854 -0.317909,0.25708 c -0.325026,0.26322 -0.283762,0.57494 0.07604,0.57494 0.277318,0 0.245517,0.12044 -0.110798,0.42078 l -0.30705,0.25994 0.341811,0.27231 c 0.269569,0.21477 0.292689,0.27297 0.109348,0.27527 -0.127908,0 -0.285758,0.098 -0.350498,0.2136 -0.101575,0.1815 -0.154204,0.1696 -0.383086,-0.083 -0.380279,-0.42013 -0.3831,-2.15661 -0.0043,-2.57509 0.161297,-0.17822 0.347796,-0.29206 0.427985,-0.29263 z m 2.732295,0.83574 c 0.241427,0.0106 0.435457,0.0352 0.534434,0.0735 0.118987,0.0458 0.215804,0.16172 0.215804,0.25848 0,0.0968 -0.09682,0.2136 -0.215804,0.25931 -0.254691,0.0977 -2.221745,0.0921 -2.519385,-0.009 -0.607241,-0.20248 -0.614315,-0.21678 -0.204939,-0.39901 0.312277,-0.13892 1.465606,-0.21794 2.18989,-0.18468 z m -0.771246,1.01826 c 0.696038,-0.0147 1.37587,0.0119 1.458477,0.0941 0.05336,0.0531 0.06048,0.19171 0.01595,0.30767 -0.06529,0.17027 -0.326367,0.20993 -1.349851,0.20288 -0.698187,-0.009 -1.423944,-0.0715 -1.612001,-0.14628 -0.332576,-0.13317 -0.334134,-0.14151 -0.06806,-0.29914 0.147389,-0.087 0.859477,-0.14417 1.555516,-0.15919 z m -8.392408,0.31856 c 0.0075,0.009 0.01534,0.022 0.02389,0.055 0.03441,0.13162 0.03441,0.34705 0,0.47859 -0.03441,0.1317 -0.06227,0.024 -0.06227,-0.23963 0,-0.19747 0.01594,-0.30693 0.03839,-0.29401 z m 8.492347,0.64019 c 0.661266,0 1.298022,0.032 1.372296,0.1064 0.06052,0.06 0.01944,0.1668 -0.09124,0.2369 -0.237534,0.1502 -2.239018,0.1502 -2.731574,0 -0.324737,-0.099 -0.327858,-0.1105 -0.06807,-0.2245 0.171687,-0.075 0.857312,-0.1159 1.518584,-0.1188 z m -14.584061,3.47593 c 0.175201,-0.01 0.277896,0.01 0.278082,0.06 0.0012,0.3537 0.409732,4.7025 0.479399,5.1032 0.05372,0.309 0.164329,0.4529 0.379466,0.4947 l 0.3027,0.059 -0.309944,0.019 -0.310666,0.018 0.03694,2.9002 0.03693,2.9004 0.341811,0.095 0,0 c 0.27508,0.076 0.235193,0.093 -0.204939,0.093 -1.969219,-0.01 -3.683513,-1.0693 -4.544169,-2.822 -0.375062,-0.7638 -0.379471,-0.8046 -0.349776,-3.0987 0.01655,-1.2788 0.05361,-2.9092 0.08255,-3.623 l 0.05289,-1.2985 0.96242,-0.3012 c 1.058417,-0.3315 2.240724,-0.5769 2.766332,-0.5982 z m -6.721021,0.5684 c 1.162544,0.015 1.825969,0.1435 1.567103,0.3035 -0.203495,0.1258 -2.166932,0.2296 -2.672917,0.1412 -0.206863,-0.036 -0.375837,-0.1167 -0.375837,-0.1788 0,-0.2045 0.41783,-0.2795 1.481651,-0.2659 z m 2.185546,0.2014 c 0.05445,0.012 0.124532,0.078 0.238976,0.2049 0.380278,0.4202 0.383821,2.156 0.0048,2.5745 -0.258072,0.2851 -0.58107,0.4061 -0.429428,0.1607 0.04332,-0.071 -0.05896,-0.2237 -0.227397,-0.3418 l -0.306321,-0.2143 0.30415,-0.213 c 0.402404,-0.2818 0.383123,-0.447 -0.07242,-0.6256 -0.364503,-0.143 -0.367222,-0.1504 -0.08254,-0.26 0.471433,-0.1815 0.530103,-0.419 0.170899,-0.6953 -0.261231,-0.2008 -0.280417,-0.2511 -0.09487,-0.2549 0.127909,0 0.285766,-0.098 0.350505,-0.2136 0.05077,-0.091 0.08896,-0.1334 0.143387,-0.1216 z m 6.25031,0.3114 c 0.0075,0.01 0.016,0.022 0.02461,0.055 0.03441,0.1317 0.03441,0.3471 0,0.4787 -0.03441,0.1316 -0.063,0.024 -0.063,-0.2397 0,-0.1974 0.01595,-0.3068 0.03839,-0.2941 z m -8.09043,0.32 c 0.505942,0.01 0.962004,0.054 1.126087,0.116 0.378629,0.144 0.384934,0.1587 0.124557,0.3055 -0.286179,0.1614 -2.418537,0.2724 -2.845987,0.1485 -0.138767,-0.04 -0.227968,-0.1719 -0.203494,-0.2998 0.03616,-0.1891 0.254565,-0.2342 1.285399,-0.2665 0.170766,-0.01 0.344788,-0.01 0.513438,-0.01 z m -0.848727,0.9364 c 0.821539,-0.01 2.053125,0.1 2.180474,0.2274 0.101011,0.1009 0.01222,0.1899 -0.296906,0.2977 -0.4355,0.1517 -2.359411,0.1975 -2.691019,0.063 -0.295102,-0.1191 -0.186041,-0.4479 0.178871,-0.5396 0.126501,-0.032 0.35474,-0.047 0.62858,-0.048 z m 0.543127,1.0232 c 0.696092,0.015 1.408771,0.073 1.556244,0.1594 0.262374,0.1547 0.25779,0.1673 -0.111527,0.3078 -0.21176,0.081 -0.936796,0.1464 -1.611273,0.1464 -0.979138,0 -1.24319,-0.043 -1.307857,-0.2116 -0.04452,-0.1161 -0.03742,-0.2546 0.01595,-0.3078 0.08231,-0.082 0.762382,-0.1091 1.458475,-0.094 z m 8.264952,0.1464 c 0.007,0.01 0.01455,0.041 0.02249,0.093 0.03146,0.208 0.03098,0.5155 -0.0012,0.6837 -0.03249,0.1683 -0.0583,0 -0.05721,-0.3781 6.02e-4,-0.2821 0.01541,-0.4296 0.03622,-0.3982 z m 7.925317,0.1557 0.04343,1.0102 c 0.02364,0.5557 -0.02846,1.38 -0.11587,1.8314 -0.37002,1.9105 -1.585784,5.026 -2.028401,5.1988 -0.123401,0.048 -1.131748,0.1232 -2.241309,0.1665 -1.476638,0.059 -2.017534,0.037 -2.017534,-0.078 0,-0.087 0.06016,-0.1579 0.133973,-0.1579 0.07381,0 0.575145,-0.4148 1.113772,-0.9226 1.165896,-1.0991 3.046167,-3.5755 4.246535,-5.5929 z m -15.38644,0.5851 0.469984,0 0.469989,0 0.04271,1.5047 c 0.02353,0.8278 0.01227,1.5034 -0.02539,1.5034 -0.0376,-5e-4 -0.173108,-0.1854 -0.301257,-0.4105 -0.128142,-0.2253 -0.328299,-0.4099 -0.444637,-0.4099 -0.173216,0 -0.21146,-0.1975 -0.21146,-1.0935 z m 11.72721,8.0773 c 1.05136,0.033 2.100273,0.3472 2.977788,0.9509 1.450162,0.9977 2.710649,2.9282 3.126241,4.789 0.242502,1.0858 0.354106,2.4585 0.199871,2.4585 -0.06261,0 -0.11442,-0.1246 -0.11442,-0.2767 0,-0.1654 -0.143453,-0.3418 -0.357735,-0.4395 -0.315965,-0.1439 -0.388302,-0.1256 -0.615549,0.1549 -0.442929,0.5471 -0.203392,1.7924 0.344705,1.7924 0.226373,0 0.581257,-0.4006 0.666963,-0.7524 0.03664,-0.1505 0.06943,-0.028 0.07315,0.273 0.0036,0.3009 -0.09653,0.9356 -0.223042,1.4099 l -0.23029,0.8625 -2.735189,0.04 c -2.784563,0.04 -4.24124,0.2376 -5.127845,0.696 -0.219016,0.1132 -0.424081,0.2064 -0.45623,0.2064 -0.248254,0 -0.905297,-1.4496 -1.302052,-2.8729 -0.440764,-1.5811 -0.703968,-3.4805 -0.701003,-5.0597 0.0036,-1.924 0.132421,-2.4261 0.764725,-2.9772 1.00203,-0.8731 2.358172,-1.2969 3.709923,-1.2549 z m 2.43901,2.2434 c -0.469269,0.013 -1.00695,0.1836 -1.649663,0.5113 l -0.955182,0.4875 0.88711,0.1355 c 1.645367,0.2514 3.621276,0.1684 3.515844,-0.1478 -0.02642,-0.08 -0.278106,-0.3309 -0.559058,-0.5583 -0.369178,-0.2989 -0.769796,-0.4416 -1.239051,-0.4282 z m 1.006595,3.0026 c -0.151703,-0.027 -0.159836,0.092 0.05505,0.3294 0.24524,0.2711 0.300655,1.0635 0.09704,1.3854 -0.06912,0.1092 -0.09502,0.2478 -0.05794,0.3078 0.105848,0.1713 0.147353,0.1384 0.450431,-0.3519 0.409017,-0.6618 0.368992,-1.1017 -0.133244,-1.4593 -0.177451,-0.1264 -0.320308,-0.1953 -0.411327,-0.2114 z m -1.764805,1.9951 c -0.556952,0 -0.84904,0.8647 -0.529367,1.5663 0.175091,0.3843 0.66251,0.4716 0.91752,0.1644 0.473172,-0.5701 0.212874,-1.7307 -0.388153,-1.7307 z m -1.436031,8.685 c 1.197252,0 1.743087,0.05 1.869082,0.1759 0.146926,0.1456 1.765467,6.3143 1.685146,6.4226 -0.01384,0.019 -0.213867,-0.2271 -0.444638,-0.5466 -0.230772,-0.3197 -0.584717,-0.7658 -0.786455,-0.9915 -0.201738,-0.2256 -0.525614,-0.6443 -0.719821,-0.9298 -0.347434,-0.5108 -0.590226,-0.4935 -0.57065,0.04 0.0054,0.14 0.04006,0.123 0.109355,-0.053 0.08734,-0.2226 0.172602,-0.161 0.61337,0.4394 l 0.511989,0.6974 -0.171627,1.3731 c -0.09426,0.7553 -0.205372,1.3716 -0.246942,1.3716 -0.04158,0 -0.290705,-0.5606 -0.553993,-1.2427 -0.263283,-0.682 -0.521927,-1.2672 -0.574267,-1.3006 -0.05235,-0.033 -0.201208,0.4333 -0.330945,1.0371 -0.129732,0.6037 -0.274166,1.0977 -0.321531,1.0977 -0.04734,0 -0.165942,-0.3844 -0.262873,-0.8537 -0.09694,-0.4692 -0.207796,-0.905 -0.246943,-0.9683 -0.03916,-0.062 -0.25723,0.4285 -0.48447,1.0929 -0.22724,0.6642 -0.453392,1.2527 -0.502574,1.3078 -0.04915,0.056 -0.234802,-0.4167 -0.412054,-1.0485 -0.424905,-1.5149 -0.458901,-1.5577 -0.8089,-1.0111 -0.1601,0.2501 -0.292173,0.4107 -0.293285,0.3563 -0.0065,-0.28 1.098088,-6.3128 1.168809,-6.3835 0.04554,-0.046 0.844003,-0.082 1.774217,-0.082 z"
         id="path3362"
         inkscape:connector-curvature="0"
         sodipodi:nodetypes="sscccscscscccssscccssssccsccccccssccccccccscccccssscsscsscssscccsscccscsccccscsccccsccccccsccscssccccscscsccccsssssssssssssscsscsssccscsssssccccccscssscsccscssssssssssccccccssssssssscscsssscccsssssssscsssssscccsccccccccsccsscccsccccccsccssssccccscccccsssssscsssscccssscssscsccccsscccccccccccsscccscscscscccccccccccscccscscccccssccccssscsccscccccccsccssccccccsccsscscssscssscccccssccssccccssscccscssscsscccccssccccsccscsscscccs" />
      <path
         style="fill-opacity:1"
         d="m 118.81257,1050.3287 c -0.10704,-0.1977 -0.29589,-0.6826 -0.41967,-1.0779 -0.65515,-2.0916 -1.25785,-2.9242 -1.2603,-1.7408 -0.001,0.689 -0.34356,1.8307 -0.54861,1.8307 -0.0954,0 -0.37284,-0.4509 -0.61653,-1.0019 -0.49976,-1.1301 -0.93149,-1.252 -1.22245,-0.3454 -0.0951,0.2964 -0.29438,0.8218 -0.44279,1.1676 l -0.26983,0.6288 -0.47285,-1.509 c -0.6985,-2.229 -1.21908,-2.3433 -2.12718,-0.467 l -0.43468,0.8982 0.10914,-1.6442 c 0.06,-0.9044 0.34934,-3.0341 0.64291,-4.7329 0.29357,-1.6987 0.53377,-3.1121 0.53377,-3.141 0,-0.029 -0.30314,-0.1082 -0.67363,-0.1763 -1.76194,-0.3244 -3.62755,-1.5795 -4.80936,-3.2357 -2.12151,-2.9731 -2.73895,-6.072 -2.41661,-12.1288 0.0704,-1.322 0.0285,-1.626 -0.31184,-2.2657 -0.86698,-1.6293 -2.88504,-2.9491 -6.517634,-4.2624 l -1.691681,-0.6116 0.890308,-0.1908 c 2.399195,-0.5139 7.823737,-1.2919 9.008437,-1.2919 0.2041,0 0.0617,-0.1698 -0.39709,-0.4735 -1.06033,-0.7017 -2.03378,-1.6733 -2.54823,-2.5435 -0.44773,-0.7573 -0.46305,-0.7656 -0.82972,-0.4491 -0.20546,0.1774 -0.56659,0.5448 -0.8025,0.8165 -0.52746,0.6074 -1.325717,0.6587 -1.816106,0.1167 -0.42773,-0.4727 -0.605051,-0.6501 -1.077806,-1.0778 -0.493539,-0.4465 -0.493539,-1.3139 0,-1.7604 0.472755,-0.4277 0.650076,-0.605 1.077806,-1.0778 0.514387,-0.5685 1.290926,-0.4916 1.859606,0.1842 0.25983,0.3088 0.49567,0.5311 0.52407,0.494 0.0284,-0.037 0.0159,-0.9364 -0.0278,-1.9985 l -0.0794,-1.931 -0.47361,-0.013 c -0.26049,-0.01 -1.04189,0 -1.736456,0.011 -0.694556,0.013 -1.484772,-0.061 -1.756029,-0.1638 -0.622236,-0.2366 -0.82145,-0.711 -0.42137,-1.0035 0.266806,-0.1952 0.270088,-0.2452 0.02917,-0.4452 -0.149295,-0.1239 -0.271442,-0.3267 -0.271442,-0.4507 0,-0.124 0.122147,-0.3268 0.271442,-0.4507 0.240325,-0.1995 0.235183,-0.2522 -0.0449,-0.4601 -0.271608,-0.2017 -0.283134,-0.2893 -0.0815,-0.6192 0.185575,-0.3036 0.188808,-0.4398 0.01544,-0.6487 -0.175947,-0.212 -0.158888,-0.3249 0.08608,-0.5697 0.254832,-0.2547 0.676874,-0.3054 2.544366,-0.3054 l 2.238869,0 -2e-5,-2.91215 c -2e-5,-2.6077 -0.0468,-3.0586 -0.44681,-4.3112 -0.24573,-0.7695 -0.44752,-1.682 -0.44842,-2.0278 -0.002,-0.6764 0.5488,-1.7436 0.98606,-1.9114 0.20424,-0.078 0.26842,-0.4167 0.26842,-1.415 0,-1.5885 0.44798,-3.1315 1.24582,-4.2911 0.82209,-1.1949 1.64359,-1.7551 3.75968,-2.5638 0.4147,-0.1584 0.40633,-0.1746 -0.34998,-0.6751 -2.65696,-1.7583 -4.82709,-4.9319 -5.48554,-8.022 -0.21371,-1.0029 -0.24995,-1.7283 -0.14727,-2.947 0.25744,-3.0558 0.16026,-3.3233 -1.20751,-3.3233 l -0.679068,0 0.477868,-1.1227 c 1.01488,-2.3843 2.38876,-4.1902 4.25828,-5.5973 0.70868,-0.5333 1.40101,-1.1053 1.53853,-1.271 0.42558,-0.5128 0.25962,-1.8878 -0.51537,-4.2699 -0.40691,-1.2508 -0.73984,-2.4477 -0.73984,-2.66 0,-0.2122 -0.12544,-0.87 -0.27876,-1.4617 -0.15332,-0.5917 -0.25047,-1.1606 -0.21589,-1.2644 0.0346,-0.1037 0.49256,0.391 1.01772,1.0994 1.02434,1.3817 1.58265,1.8298 1.81391,1.4556 0.0746,-0.1207 0.18895,-0.796 0.25405,-1.5005 0.0651,-0.7046 0.1664,-1.7842 0.2251,-2.3993 0.0587,-0.615 0.17041,-1.0789 0.24826,-1.0307 0.0778,0.048 0.27891,0.5109 0.44681,1.0284 0.76437,2.3561 1.33735,3.1956 1.33991,1.9632 0.002,-0.6889 0.34356,-1.8306 0.54861,-1.8306 0.0954,0 0.37284,0.4509 0.61653,1.0019 0.49976,1.13 0.93149,1.252 1.22245,0.3454 0.0951,-0.2964 0.29437,-0.8219 0.44279,-1.1677 l 0.26983,-0.6287 0.47285,1.509 c 0.6985,2.229 1.21908,2.3433 2.12717,0.467 l 0.43469,-0.8982 -0.10914,1.6442 c -0.06,0.9043 -0.34934,3.0341 -0.64291,4.7328 -0.29357,1.6988 -0.53377,3.1122 -0.53377,3.141 0,0.029 0.30314,0.1082 0.67363,0.1764 1.76194,0.3244 3.62755,1.5795 4.80936,3.2357 2.12151,2.973 2.73895,6.0719 2.41661,12.1288 -0.0983,1.8476 0.20005,2.5505 1.62731,3.8337 1.0465,0.9409 2.31398,1.6027 5.00217,2.6117 l 1.86491,0.7 -0.87693,0.1879 c -2.38695,0.5114 -7.81382,1.2891 -8.99505,1.2891 -0.2041,0 -0.0617,0.1698 0.39709,0.4734 1.06033,0.7018 2.03378,1.6734 2.54823,2.5436 0.44773,0.7573 0.46305,0.7656 0.82972,0.4491 0.20546,-0.1774 0.56658,-0.5448 0.8025,-0.8165 0.52745,-0.6074 1.32572,-0.6588 1.8161,-0.1167 0.42773,0.4727 0.60505,0.65 1.07781,1.0778 0.49354,0.4465 0.49354,1.3138 0,1.7604 -0.47276,0.4277 -0.65008,0.605 -1.07781,1.0778 -0.51438,0.5685 -1.29092,0.4916 -1.8596,-0.1842 -0.25984,-0.3089 -0.49568,-0.5312 -0.52408,-0.4941 -0.0284,0.037 -0.0159,0.9365 0.0278,1.9985 l 0.0794,1.9311 0.47362,0.013 c 0.26049,0.01 1.04189,0 1.73646,-0.011 0.69455,-0.013 1.48477,0.061 1.75602,0.1637 0.62224,0.2367 0.82145,0.7111 0.42137,1.0036 -0.2668,0.1951 -0.27008,0.2452 -0.0292,0.4451 0.1493,0.124 0.27145,0.3268 0.27145,0.4508 0,0.124 -0.12215,0.3268 -0.27145,0.4507 -0.24032,0.1995 -0.23518,0.2522 0.0449,0.4601 0.27161,0.2017 0.28314,0.2892 0.0815,0.6192 -0.18557,0.3036 -0.1888,0.4398 -0.0154,0.6487 0.17595,0.212 0.15892,0.3249 -0.0859,0.5697 -0.2547,0.2547 -0.67665,0.3053 -2.54434,0.3053 l -2.239,0 0,2.9122 c -10e-6,2.60775 0.0468,3.05855 0.44678,4.31125 0.24574,0.7695 0.44752,1.682 0.44842,2.0278 0.002,0.6764 -0.5488,1.7436 -0.98605,1.9114 -0.20424,0.078 -0.26842,0.4167 -0.26842,1.415 0,3.2027 -1.55732,5.5637 -4.33865,6.5778 -0.5777,0.2107 -1.05036,0.4019 -1.05036,0.4249 0,0.023 0.33937,0.2665 0.75416,0.5409 2.63556,1.7441 4.80863,4.9286 5.46487,8.0084 0.2137,1.0029 0.24995,1.7282 0.14727,2.947 -0.25745,3.0558 -0.16026,3.3233 1.20751,3.3233 l 0.67906,0 -0.47787,1.1227 c -1.01487,2.3843 -2.38876,4.1902 -4.25828,5.5973 -0.70867,0.5333 -1.40101,1.1053 -1.53853,1.2709 -0.42558,0.5129 -0.25962,1.8878 0.51537,4.27 0.40692,1.2507 0.73984,2.4477 0.73984,2.66 0,0.2122 0.12545,0.8699 0.27877,1.4617 0.15332,0.5916 0.25047,1.1606 0.21589,1.2644 -0.0346,0.1037 -0.49256,-0.391 -1.01773,-1.0994 -1.03685,-1.3986 -1.58216,-1.8306 -1.82171,-1.443 -0.0789,0.1277 -0.20104,0.923 -0.27138,1.7673 -0.0703,0.8443 -0.18018,1.9405 -0.24411,2.436 -0.10032,0.7775 -0.14289,0.8517 -0.31086,0.5416 z m -3.91126,-4.1241 c 0.28654,-0.8439 0.56972,-1.5344 0.62929,-1.5344 0.0596,0 0.21507,0.5659 0.34557,1.2575 0.13049,0.6915 0.29249,1.2574 0.36,1.2574 0.0675,0 0.26795,-0.692 0.44543,-1.5377 0.17748,-0.8457 0.37982,-1.4722 0.44964,-1.3921 0.0698,0.08 0.39423,0.8325 0.7209,1.6724 0.32667,0.8397 0.65131,1.5925 0.72144,1.6728 0.0701,0.08 0.22996,-0.6471 0.35519,-1.6166 0.12524,-0.9696 0.28229,-1.8662 0.349,-1.9925 0.0797,-0.1509 0.39004,0.1412 0.90536,0.8526 0.43122,0.5952 0.7987,1.0623 0.81662,1.038 0.0179,-0.024 -0.46067,-2.0166 -1.06353,-4.4274 -1.00962,-4.0373 -1.13153,-4.3972 -1.54518,-4.5607 -0.62589,-0.2474 -3.96037,-0.2454 -4.40103,0 -0.30527,0.1719 -0.47226,0.8449 -1.1112,4.4784 -0.41357,2.3519 -0.72672,4.3014 -0.6959,4.3322 0.0308,0.031 0.24235,-0.2505 0.47006,-0.6253 l 0.41402,-0.6812 0.54555,1.7378 c 0.30006,0.9558 0.59556,1.7069 0.65667,1.6691 0.0611,-0.038 0.34556,-0.7591 0.6321,-1.6031 z m -0.28258,-14.9713 c 1.5146,-0.3691 4.9218,-0.6177 6.93908,-0.5063 l 1.99915,0.1105 0.28173,-1.1222 c 0.92751,-3.6947 0.29781,-7.402 -1.74302,-10.262 -1.42272,-1.9937 -3.21113,-3.1493 -5.49729,-3.552 -2.51979,-0.4439 -6.00118,1.0485 -6.50195,2.7871 -0.76061,2.6408 0.35665,9.9364 1.93632,12.6438 l 0.44533,0.7633 0.66615,-0.3326 c 0.36638,-0.1829 1.02991,-0.4212 1.4745,-0.5296 z m 8.60848,-3.5552 c -0.29292,-0.353 -0.31159,-1.4361 -0.0296,-1.7181 0.50786,-0.5079 1.00525,0.8023 0.65304,1.7202 -0.1384,0.3606 -0.32289,0.36 -0.62343,0 z m -5.30287,-0.3236 c -0.0529,-0.1378 -0.0705,-0.5622 -0.0392,-0.9431 0.0447,-0.5445 0.13092,-0.6925 0.40322,-0.6925 0.42842,0 0.6904,0.8364 0.4555,1.4542 -0.1795,0.4721 -0.66651,0.5799 -0.81945,0.1814 z m 2.6279,-1.8485 c -0.003,-0.117 0.0797,-0.4372 0.184,-0.7115 0.22135,-0.5822 0.10849,-1.1769 -0.30107,-1.5865 -0.15981,-0.1598 -0.23969,-0.3414 -0.17749,-0.4036 0.16502,-0.1651 1.18729,0.8662 1.18621,1.1966 -9.8e-4,0.3297 -0.88338,1.8189 -0.89165,1.505 z m -2.89984,-10.2994 c 1.69953,-0.2206 3.01855,-0.8297 4.06659,-1.8777 1.23778,-1.2378 1.75787,-2.5088 1.87642,-4.5854 0.082,-1.4368 0.17531,-1.8368 0.59011,-2.5306 0.5537,-0.9263 0.62795,-1.4214 0.21314,-1.4214 -0.15846,0 -0.43397,-0.349 -0.63607,-0.8059 -0.19608,-0.4433 -0.5218,-0.8944 -0.72381,-1.0026 -0.20202,-0.1081 -0.32046,-0.2434 -0.26321,-0.3006 0.0572,-0.057 0.26627,0.043 0.46447,0.222 0.35698,0.3231 0.36037,0.3159 0.36037,-0.7666 l 0,-1.0927 -0.96715,-0.3619 c -2.11351,-0.79085 -4.55318,-1.23315 -7.74508,-1.40425 -1.87289,-0.1004 -6.14537,0.1229 -5.0552,0.2643 l 0.51344,0.067 -0.10442,1.10895 c -0.0574,0.6099 -0.15738,2.2608 -0.22211,3.6687 -0.10342,2.2496 -0.15491,2.5598 -0.42492,2.5598 -0.26922,0 -0.34821,-0.4578 -0.63846,-3.7002 l -0.33123,-3.70035 -0.73067,0.1121 c -1.09941,0.1687 -3.64301,0.81835 -4.33342,1.10685 -0.55449,0.2317 -0.59362,0.2961 -0.43438,0.7149 0.2631,0.692 0.21086,1.9567 -0.11439,2.7696 -0.44687,1.1168 -0.27644,5.4637 0.26915,6.8648 0.52358,1.3446 1.70292,2.63 3.10768,3.3871 1.08497,0.5847 1.23872,0.6157 3.55901,0.7183 3.93227,0.174 6.29057,0.1698 7.70414,-0.014 z m 0.35606,-11.486 c -0.23062,-0.3119 -0.77817,-0.8048 -1.21678,-1.0953 -0.65483,-0.4338 -0.98578,-0.5283 -1.85025,-0.5283 -0.57902,0 -1.33134,0.1164 -1.6718,0.2587 -0.39964,0.167 -0.65862,0.1946 -0.73075,0.078 -0.14146,-0.2289 -0.19433,-0.1895 1.17262,-0.8749 1.31043,-0.657 2.28488,-0.7366 2.94279,-0.2403 0.76565,0.5776 2.17304,2.5698 1.96345,2.7794 -0.13355,0.1335 -0.31453,0.021 -0.60928,-0.3772 z m -17.03888,8.0639 c 0.0609,-0.2581 0.27257,-0.4636 0.54245,-0.5266 0.34177,-0.08 0.45554,-0.2373 0.49964,-0.6912 0.0499,-0.5134 -0.0127,-0.6141 -0.49399,-0.7958 -0.32512,-0.1227 -0.5511,-0.3366 -0.5511,-0.5216 0,-0.5218 -0.66569,-0.7614 -1.179664,-0.4246 -0.240373,0.1575 -0.437036,0.4003 -0.437036,0.5395 0,0.1393 -0.15437,0.3022 -0.343046,0.3621 -0.188677,0.06 -0.443065,0.2294 -0.565314,0.3767 -0.310371,0.374 0.05837,1.1554 0.545241,1.1554 0.203018,0 0.363119,0.1188 0.363119,0.2694 0,0.1482 0.159765,0.4292 0.35504,0.6245 0.44607,0.4461 1.11872,0.2505 1.26466,-0.3678 z m -1.175481,-1.0729 c -0.164932,-0.2669 0.251081,-0.7083 0.556901,-0.591 0.39374,0.1512 0.31931,0.7785 -0.0923,0.7785 -0.19177,0 -0.400818,-0.084 -0.464552,-0.1875 z m 1.595941,-5.9552 c 0.64064,-0.3413 -0.032,-0.5917 -1.760036,-0.6551 -1.818906,-0.067 -2.629916,0.15 -2.254316,0.6026 0.112534,0.1356 0.461302,0.2822 0.775042,0.3259 0.801271,0.1114 2.8401,-0.061 3.23931,-0.2734 z m 0.84954,-0.016 c 0.50343,-0.3865 0.70297,-0.9778 0.70297,-2.0831 0,-0.8979 -0.0757,-1.1645 -0.44959,-1.5836 -0.41081,-0.4606 -0.46582,-0.4769 -0.63765,-0.1897 -0.10343,0.1729 -0.32549,0.3162 -0.49348,0.3184 -0.24315,0 -0.21729,0.072 0.12678,0.3363 0.4642,0.3568 0.42308,0.9171 -0.0673,0.9171 -0.40537,0 -0.33444,0.248 0.1291,0.4514 0.49569,0.2175 0.48822,0.4789 -0.0204,0.7139 -0.43349,0.2003 -0.50934,0.4514 -0.13635,0.4514 0.40328,0 0.6787,0.4391 0.43088,0.6869 -0.27731,0.2773 0.0486,0.2624 0.41503,-0.019 z m -0.72337,-1.3249 c 0.38148,-0.3822 -0.51178,-0.6398 -2.200121,-0.6345 -1.718888,0.01 -2.30801,0.222 -1.909658,0.702 0.170108,0.205 0.612053,0.248 2.059435,0.2007 1.076574,-0.035 1.929124,-0.1467 2.050344,-0.2682 z m 0.0195,-1.2773 c 0.11841,-0.1184 0.1646,-0.266 0.10262,-0.328 -0.22064,-0.2206 -2.749127,-0.4877 -3.420571,-0.3613 -0.728586,0.1371 -1.058722,0.5738 -0.645455,0.8537 0.35468,0.2402 3.697416,0.1016 3.963406,-0.1644 z m -0.0421,-1.2007 c 0.44794,-0.2789 -0.29844,-0.4314 -2.177988,-0.445 -1.708253,-0.012 -2.298801,0.1758 -1.740135,0.5547 0.30218,0.2048 3.559253,0.1137 3.918123,-0.1097 z m 14.74187,-4.04285 c 0.54339,-0.075 0.75456,-0.1479 0.46926,-0.1618 -0.51736,-0.025 -0.51844,-0.028 -0.4116,-0.9684 0.0589,-0.5187 0.16287,-2.1758 0.231,-3.6825 0.10833,-2.3953 0.16176,-2.7394 0.42533,-2.7394 0.2617,0 0.34513,0.4879 0.6327,3.7005 l 0.33127,3.7006 0.73281,-0.1124 c 1.10133,-0.169 3.64461,-0.8184 4.33557,-1.1072 0.55449,-0.2316 0.59362,-0.296 0.43438,-0.7149 -0.2631,-0.692 -0.21086,-1.9567 0.11439,-2.7696 0.44687,-1.1168 0.27644,-5.4637 -0.26916,-6.8648 -0.52463,-1.3473 -1.70544,-2.6324 -3.10767,-3.3822 l -1.13396,-0.6063 -3.95194,-0.1663 c -6.37964,-0.2684 -8.42139,0.1184 -10.24384,1.9409 -1.23778,1.2378 -1.75787,2.5087 -1.87642,4.5854 -0.082,1.4367 -0.17531,1.8368 -0.59011,2.5306 -0.60587,1.0134 -0.61051,1.1871 -0.0436,1.633 0.24699,0.1943 0.44908,0.4766 0.44908,0.6274 0,0.1508 0.25105,0.5087 0.5579,0.7953 0.30684,0.2867 0.49509,0.5212 0.41832,0.5212 -0.0768,0 -0.28741,-0.1338 -0.46809,-0.2973 -0.31482,-0.2849 -0.3285,-0.2518 -0.3285,0.7955 l 0,1.0927 0.96715,0.3618 c 1.74278,0.6521 3.17623,0.9487 6.48765,1.3424 1.00101,0.119 4.84304,0.083 5.83809,-0.054 z m -5.57083,-1.6138 c -0.67601,-0.1501 -1.10722,-0.5223 -2.05668,-1.775 -0.57626,-0.7602 -0.80127,-1.1954 -0.68053,-1.3161 0.12073,-0.1208 0.31552,0.01 0.58915,0.3937 0.22484,0.3158 0.77603,0.807 1.22488,1.0917 0.65906,0.4179 1.01779,0.5175 1.86448,0.5175 0.57662,0 1.32696,-0.1164 1.66742,-0.2587 0.39965,-0.1669 0.65863,-0.1946 0.73076,-0.078 0.13996,0.2265 0.17692,0.1973 -1.0004,0.7889 -1.23053,0.6184 -1.76431,0.7634 -2.33908,0.6358 z m 18.42704,0.3288 c 0.24064,-0.3894 -0.39293,-0.5347 -2.07819,-0.4768 -1.78808,0.061 -2.51964,0.2625 -1.87423,0.5152 0.56215,0.2201 3.81215,0.1885 3.95242,-0.038 z m -4.34847,-0.2494 c 0.0569,-0.1482 0.2474,-0.2713 0.4234,-0.2735 0.2676,0 0.24923,-0.058 -0.11222,-0.3362 -0.4642,-0.3569 -0.42308,-0.9172 0.0673,-0.9172 0.39914,0 0.33753,-0.301 -0.0842,-0.4113 -0.1976,-0.052 -0.35927,-0.2303 -0.35927,-0.397 0,-0.1667 0.16167,-0.3454 0.35927,-0.3971 0.46915,-0.1226 0.45799,-0.3436 -0.0237,-0.4696 -0.28147,-0.073 -0.35736,-0.1981 -0.28627,-0.47 0.13293,-0.5083 -0.15933,-0.4634 -0.68657,0.1055 -0.37672,0.4064 -0.44051,0.6501 -0.44051,1.6822 0,0.9491 0.0796,1.3082 0.37231,1.6803 0.42355,0.5385 0.62191,0.591 0.77045,0.2039 z m 4.35926,-0.8444 c 0.26446,-0.2645 0.25475,-0.306 -0.11815,-0.5056 -0.82982,-0.4441 -4.57696,-0.029 -4.09436,0.454 0.47237,0.4724 3.75158,0.5125 4.21251,0.052 z m 0.0239,-1.2696 c 0.17051,-0.1347 0.17619,-0.24 0.0229,-0.4247 -0.14419,-0.1737 -0.66715,-0.2456 -1.78686,-0.2456 -1.75201,0 -2.7009,0.2348 -2.35337,0.5823 0.44344,0.4434 3.58244,0.5106 4.11731,0.088 z m -0.11353,-1.2217 c 0.9556,-0.5115 -1.06279,-1.0281 -2.86344,-0.733 -1.17354,0.1923 -1.53721,0.4811 -0.91782,0.7286 0.59498,0.2378 3.33911,0.241 3.78126,0 z m -2.21898,-4.5784 c 0.21958,-0.1538 0.39923,-0.3908 0.39923,-0.5268 0,-0.1359 0.15437,-0.2961 0.34305,-0.356 0.18868,-0.06 0.44307,-0.2294 0.56531,-0.3767 0.31037,-0.374 -0.0584,-1.1553 -0.54524,-1.1553 -0.23982,0 -0.36312,-0.1185 -0.36312,-0.3491 0,-0.8913 -1.41458,-1.046 -1.6197,-0.1771 -0.0609,0.2581 -0.27257,0.4636 -0.54245,0.5267 -0.34177,0.08 -0.45553,0.2372 -0.49964,0.6911 -0.0499,0.5134 0.0127,0.6142 0.49399,0.7958 0.3227,0.1218 0.5511,0.3369 0.5511,0.519 0,0.171 0.14147,0.3933 0.31436,0.494 0.41519,0.2419 0.43882,0.2396 0.90311,-0.086 z m -0.63366,-1.2837 c -0.37115,-0.1376 -0.26916,-0.7719 0.12413,-0.7719 0.19176,0 0.40342,0.089 0.47034,0.1969 0.15436,0.2498 -0.2962,0.6856 -0.59447,0.575 z m -13.84062,-5.8238 c 2.00155,-0.4247 3.80553,-1.6212 4.12697,-2.7373 0.76062,-2.6408 -0.35665,-9.9364 -1.93631,-12.6438 l -0.44534,-0.7633 -0.66615,0.3326 c -1.4925,0.7452 -5.26646,1.2098 -8.41357,1.0359 l -1.99915,-0.1105 -0.28174,1.1223 c -0.92751,3.6946 -0.29781,7.4019 1.74303,10.2619 0.99344,1.3922 2.02286,2.2723 3.38958,2.898 1.65959,0.7598 2.93746,0.932 4.48268,0.6042 z m -6.73871,-7.3076 c -0.5939,-0.6199 -0.59856,-0.8319 -0.0383,-1.7416 0.47508,-0.7713 0.57581,-0.6731 0.25463,0.2482 -0.20539,0.5892 0.0511,1.638 0.40057,1.638 0.0868,0 0.15784,0.081 0.15784,0.1796 0,0.3119 -0.27591,0.1965 -0.77475,-0.3242 z m 2.30025,-2.5522 c -0.20422,-0.3304 -0.17529,-1.4198 0.0435,-1.6386 0.11174,-0.1118 0.33432,-0.1529 0.49461,-0.091 0.41497,0.1592 0.31402,1.7937 -0.11582,1.8752 -0.16369,0.031 -0.35372,-0.034 -0.4223,-0.1453 z m -5.08225,-0.2133 c -0.25249,-0.2525 -0.28261,-1.3763 -0.0469,-1.7489 0.13034,-0.2059 0.21664,-0.2135 0.4287,-0.037 0.3751,0.3113 0.51145,0.9988 0.30551,1.5404 -0.19376,0.5096 -0.36309,0.5702 -0.68735,0.246 z m 9.83401,-10.9191 c 0.20286,-0.113 0.48527,-1.3266 1.0313,-4.4318 0.41356,-2.3519 0.72671,-4.3013 0.69589,-4.3322 -0.0308,-0.031 -0.24159,0.2506 -0.46838,0.6253 l -0.41234,0.6813 -0.57417,-1.7964 -0.57419,-1.7963 -0.28396,0.6735 c -0.15618,0.3704 -0.42413,1.1182 -0.59545,1.6616 -0.17131,0.5435 -0.36458,0.9881 -0.42949,0.9881 -0.0649,0 -0.22478,-0.5658 -0.35527,-1.2574 -0.1305,-0.6916 -0.2925,-1.2574 -0.36001,-1.2574 -0.0675,0 -0.26795,0.6919 -0.44543,1.5376 -0.17748,0.8457 -0.37981,1.4722 -0.44964,1.3922 -0.0698,-0.08 -0.39423,-0.8326 -0.72089,-1.6724 -0.32667,-0.8398 -0.65131,-1.5926 -0.72144,-1.6729 -0.0701,-0.08 -0.22996,0.6472 -0.3552,1.6167 -0.12523,0.9695 -0.28228,1.8661 -0.349,1.9924 -0.0797,0.151 -0.39003,-0.1412 -0.90535,-0.8525 -0.43123,-0.5953 -0.79836,-1.0624 -0.81585,-1.0381 -0.0718,0.1 2.10545,8.6781 2.23672,8.8127 0.42509,0.4359 4.1237,0.5319 4.85215,0.126 z"
         id="path3360"
         inkscape:connector-curvature="0" />
    </g>
  </g>
</svg>
